<svg xmlns="http://www.w3.org/2000/svg" viewBox="0 0 302.26 338.17"><defs><style>.cls-1{fill:#fff;}.cls-2{fill:#4a4fa2;}</style></defs><title>clap</title><g id="Calque_2" data-name="Calque 2"><g id="Capa_1" data-name="Capa 1"><path class="cls-1" d="M29.36,205.43a13.47,13.47,0,0,1-9-3.44L6.6,189.64a13.47,13.47,0,0,1-1-19l147-164a13.48,13.48,0,0,1,19-1L185.33,17.9a13.47,13.47,0,0,1,1,19l-147,164a13.5,13.5,0,0,1-10,4.5Z"/><path class="cls-2" d="M162.57,4.22a11.34,11.34,0,0,1,7.58,2.9l13.77,12.35a11.36,11.36,0,0,1,.88,16.05l-147,164a11.37,11.37,0,0,1-16.06.89L8,188.07A11.37,11.37,0,0,1,7.13,172L154.1,8a11.32,11.32,0,0,1,8.47-3.79m0-4.22A15.62,15.62,0,0,0,151,5.19L4,169.19a15.58,15.58,0,0,0,1.22,22L19,203.56a15.59,15.59,0,0,0,22-1.21l147-164a15.58,15.58,0,0,0-1.21-22L173,4a15.61,15.61,0,0,0-10.41-4Z"/><polygon class="cls-2" points="53.15 184.73 34.26 205.81 20.4 155.53 39.29 134.45 53.15 184.73"/><polygon class="cls-2" points="92.69 140.6 73.8 161.68 59.93 111.41 78.83 90.32 92.69 140.6"/><polygon class="cls-2" points="132.23 96.47 113.34 117.56 99.48 67.29 118.38 46.2 132.23 96.47"/><polygon class="cls-2" points="171.77 52.35 152.87 73.44 139.02 23.16 157.91 2.08 171.77 52.35"/><path class="cls-2" d="M27,205.52,88.44,328.14a18.16,18.16,0,0,0,24.36,8.1l179.43-89.93a18.14,18.14,0,0,0,8.1-24.36L238.88,99.32Z"/><path class="cls-1" d="M42.25,238.09a2.19,2.19,0,0,1-.67-.11,2.13,2.13,0,0,1-1.22-1.06L24.87,206a2.11,2.11,0,0,1,.94-2.83L237.52,97.07a2.11,2.11,0,0,1,.95-.23A2.14,2.14,0,0,1,240.36,98l15.49,30.91a2.11,2.11,0,0,1-.95,2.84L43.19,237.86A2.1,2.1,0,0,1,42.25,238.09Z"/><path class="cls-2" d="M238.47,99,254,129.87,42.25,236,26.76,205.05,238.47,99m0-4.23a4.18,4.18,0,0,0-1.9.45L24.87,201.28A4.23,4.23,0,0,0,23,207l15.49,30.92A4.2,4.2,0,0,0,40.91,240a4.19,4.19,0,0,0,3.23-.23l211.71-106.1a4.22,4.22,0,0,0,1.88-5.67L242.24,97.06A4.2,4.2,0,0,0,239.8,95a4.12,4.12,0,0,0-1.33-.22Z"/><polygon class="cls-2" points="66.28 225.15 40.09 238.28 49.08 191.12 75.27 177.99 66.28 225.15"/><polygon class="cls-2" points="121.1 197.68 94.91 210.81 103.9 163.64 130.09 150.51 121.1 197.68"/><polygon class="cls-2" points="175.92 170.21 149.73 183.34 158.73 136.17 184.91 123.04 175.92 170.21"/><polygon class="cls-2" points="230.74 142.73 204.54 155.86 213.55 108.69 239.74 95.56 230.74 142.73"/><polygon class="cls-1" points="245.84 243.29 138.06 297.31 106.09 233.52 213.87 179.51 245.84 243.29"/></g></g></svg>