<svg xmlns="http://www.w3.org/2000/svg" viewBox="0 0 79.87 52.4"><defs><style>.cls-1{isolation:isolate;}.cls-2{fill:#e87003;}.cls-3{fill:#f7ac08;}.cls-4{fill:#ed8e06;}.cls-5{fill:#fccd03;}.cls-6{fill:#e6e7e8;mix-blend-mode:multiply;}.cls-7{fill:#58595b;}.cls-8{fill:#414042;}.cls-9{fill:#231f20;}.cls-10{fill:#6d6e71;}.cls-11{fill:#27aae1;}.cls-11,.cls-12,.cls-13,.cls-14{opacity:0.7;}.cls-12{fill:#f90903;}.cls-13{fill:#80e4ff;}.cls-14{fill:#fc8d8d;}</style></defs><title>glasses</title><g class="cls-1"><g id="Calque_2" data-name="Calque 2"><g id="Layer_1" data-name="Layer 1"><path class="cls-2" d="M47.92,6.71V6.35a.47.47,0,0,0-.3.67A.71.71,0,0,1,47.92,6.71Z"/><path class="cls-2" d="M45.23,5.16V4.79c-.44.22-.38.53-.31.68A.71.71,0,0,1,45.23,5.16Z"/><path class="cls-2" d="M42.54,3.61V3.24a.46.46,0,0,0-.31.68A.76.76,0,0,1,42.54,3.61Z"/><path class="cls-2" d="M50.6,8.26V7.9c-.43.21-.38.52-.31.67A.83.83,0,0,1,50.6,8.26Z"/><path class="cls-2" d="M1.12,26a1.4,1.4,0,0,0-.46-1.3l-.35-.13v.37A1.5,1.5,0,0,1,1.12,26Z"/><path class="cls-2" d="M55.46,11.07V10.7a1.75,1.75,0,0,0-1.12,1.83A2.17,2.17,0,0,1,55.46,11.07Z"/><path class="cls-2" d="M53.29,9.82V9.45c-.47.24-.38.53-.31.68A.77.77,0,0,1,53.29,9.82Z"/><path class="cls-2" d="M10.55,33c.11-.23,0-.5-.32-.68a1.89,1.89,0,0,0-1.7,0l-1-.56v.36l1,.57a1.83,1.83,0,0,1,1.7,0A.8.8,0,0,1,10.55,33Z"/><path class="cls-2" d="M2.48,28.37c.11-.23,0-.49-.31-.67a1.88,1.88,0,0,0-1.71,0L0,27.43v.37l.46.26a1.91,1.91,0,0,1,1.71,0A.71.71,0,0,1,2.48,28.37Z"/><path class="cls-2" d="M18.37,35a5.8,5.8,0,0,0-5,.19l-.46-.27v.37l.46.26a5.84,5.84,0,0,1,5-.18L55.16,14c0-.14,0-.22,0-.37Z"/><path class="cls-2" d="M13.23,34.58c.11-.23,0-.49-.31-.68a1.91,1.91,0,0,0-1.71,0l-1-.56v.37l1,.56a1.91,1.91,0,0,1,1.71,0A.71.71,0,0,1,13.23,34.58Z"/><path class="cls-2" d="M5.17,29.93c.11-.24,0-.5-.31-.68a1.85,1.85,0,0,0-1.71,0l-1-.57v.37l1,.56a1.91,1.91,0,0,1,1.71,0A.73.73,0,0,1,5.17,29.93Z"/><path class="cls-2" d="M7.86,31.48c.11-.24,0-.5-.32-.68a1.89,1.89,0,0,0-1.7,0l-1-.57v.37l1,.57a1.85,1.85,0,0,1,1.71,0A.66.66,0,0,1,7.86,31.48Z"/><path class="cls-3" d="M15.75,27.77a3,3,0,0,1-2.86-.18c-1-.56-1.22-1.23-.61-1.58a2.16,2.16,0,0,1,1.91,0l1-.6L13.4,24.35l-.92.53.35.48-.4,0a2.55,2.55,0,0,0-1.48.34c-.87.5-1.2,1.78.5,2.75a5,5,0,0,0,5.06,0,2,2,0,0,0,1.16-1.72l-1.39,0A1.06,1.06,0,0,1,15.75,27.77Z"/><polygon class="cls-3" points="28.77 16.98 27.41 16.2 23.19 18.66 23.87 19.05 24.34 18.77 27.96 20.86 27.49 21.14 28.17 21.53 32.39 19.08 31 18.28 30.02 18.85 30.73 19.25 29.2 20.14 27.64 19.24 29.07 18.41 28.39 18.02 26.95 18.85 25.58 18.05 27.11 17.16 27.78 17.55 28.77 16.98"/><polygon class="cls-3" points="16.55 23.3 17.02 23.03 16.34 22.64 14.16 23.91 14.84 24.3 15.31 24.02 18.93 26.11 18.45 26.39 19.14 26.78 21.32 25.52 20.64 25.12 20.17 25.39 16.55 23.3"/><path class="cls-3" d="M50.94,11.28,41.1,5.6a12.23,12.23,0,0,1-3.31,0L4.51,24.93a2.34,2.34,0,0,1,0,1.92l9.85,5.68a12.23,12.23,0,0,1,3.31,0L51,13.2A2.34,2.34,0,0,1,50.94,11.28Zm-23,1,1,.29.75-.44-.16.61,1,.28-1.06.1-.17.61-.49-.55-1.06.1.76-.44ZM25,14l1,.28.76-.44-.17.62,1,.28-1.06.1-.17.61-.49-.55L24.7,15l.75-.44Zm2,4.44,1.43-.83,1.34.77-1.44.83.92.53.88-.51-.71-.41,1.63-1,2,1.18-4.87,2.83-1.33-.77.47-.28-3-1.71-.47.28-1.33-.77,4.87-2.83,2,1.15-1.63.95-.67-.39-.88.51Zm-5-2.72L23,16l.76-.44-.16.61.95.28-1.06.1-.16.61-.49-.55-1.06.1.75-.44Zm-3,1.73.95.28.76-.44-.16.62,1,.28-1.05.09-.17.62-.49-.55-1.06.09.76-.44Zm-3,1.72,1,.28.75-.43-.16.61,1,.28-1.06.1-.17.61-.49-.55-1.06.1.76-.44Zm3.08,8-1-.59v0a2.14,2.14,0,0,1-1.28,2.05,5.81,5.81,0,0,1-5.71,0c-1.91-1.1-1.51-2.55-.51-3.13a3.17,3.17,0,0,1,1.5-.42l-.18-.24L13.39,24l2.49,1.44-1.67,1-.16-.08a1.58,1.58,0,0,0-1.44-.09c-.42.24-.16.76.6,1.2a2.38,2.38,0,0,0,2.21.18.87.87,0,0,0,.39-1l0-.18,2.15.06-.13-.08.47-.28-3-1.71-.47.27-1.33-.76,2.83-1.65,1.32.77-.46.27,3,1.72.47-.28,1.34.78ZM22,25.49l-1.3-.76.44-.26-3-1.74L17.7,23l-1.31-.75,2.42-1.4,4,.46-1.11-.64-.51.3-1.31-.75,2.6-1.51,1.31.75-.5.29,4.32,2.5-1.87,1.09-4.19-.48,1.21.7.58-.34,1.31.75Zm5.1.1L27,26.2l-.49-.55-1.06.1.76-.44-.49-.56,1,.28.75-.44-.16.62,1,.28Zm3-1.73-.17.62-.49-.55L28.37,24l.76-.44L28.64,23l1,.28.75-.44-.16.61.95.29Zm3-1.72-.16.61-.49-.55-1.06.1.76-.44-.5-.56,1,.28.76-.43-.16.61,1,.28Zm3-1.73-.16.62-.49-.55-1.06.09.75-.44-.49-.55,1,.28.76-.44-.17.62,1,.28Zm3-1.72-.16.61-.49-.55-1.07.1.76-.44-.49-.56,1,.28.75-.43-.16.61,1,.28ZM43.57,13l-1.32-.76.67-.39-.25-.07-1.31.76.13.14.53-.31,1.32.76-2.72,1.59-2.68,1.55-1.24-.71.9.91-1.82,1.06L34.32,17l1.14.66-2.37,1.38-1.3-.75.41-.24-3-1.75-.4.24-1.31-.76L30.61,14l3,1-1.76-1.71L35,11.41l1.31.76-.42.24,3,1.74.39-.23h0l.56-.32-2.09-2.27-.26.15-1.3-.75,3.18-1.85L45,10.58l.57-.33,1.32.76Z"/><path class="cls-3" d="M39.47,9.19l-2.61,1.53.65.37.37-.21,2.54,2.76-.47.27.67.39,2.07-1.21L42,12.71l-.64.37-.59-.63,1.79-1,1.1.34-.78.45.67.38L46.27,11l-.66-.38-.49.28ZM40.39,12l-1.66-1.78,3.09.95Z"/><path class="cls-3" d="M55.17,10.9l.29-.2L55,10.44a1.91,1.91,0,0,1-1.71,0,.83.83,0,0,1-.31-.31A.43.43,0,0,1,53,9.67a.78.78,0,0,1,.25-.22l-1-.56a1.91,1.91,0,0,1-1.71,0,.76.76,0,0,1-.32-.32.42.42,0,0,1,.06-.45.78.78,0,0,1,.25-.22l-1-.56a1.91,1.91,0,0,1-1.71,0A.68.68,0,0,1,47.61,7a.43.43,0,0,1,0-.46.75.75,0,0,1,.25-.21l-1-.57a1.85,1.85,0,0,1-1.71,0,.76.76,0,0,1-.31-.31A.45.45,0,0,1,45,5a.84.84,0,0,1,.26-.22l-1-.56a1.89,1.89,0,0,1-1.7,0,.8.8,0,0,1-.32-.31.43.43,0,0,1,.06-.46.79.79,0,0,1,.25-.22L42.08,3a5.87,5.87,0,0,1-5,.19L.31,24.54l.29.2A1.33,1.33,0,0,1,1.12,26,2.11,2.11,0,0,1,0,27.43l.3.17.16.09a1.88,1.88,0,0,1,1.71,0c.32.18.42.44.31.67a.68.68,0,0,1-.3.31l.25.15.72.42a1.85,1.85,0,0,1,1.71,0c.31.18.42.44.31.68a.64.64,0,0,1-.31.3l.26.15.72.42a1.89,1.89,0,0,1,1.7,0c.32.18.43.44.32.68a.76.76,0,0,1-.31.31l.26.14.72.42a1.89,1.89,0,0,1,1.7,0c.32.18.43.45.32.68a.76.76,0,0,1-.31.31l.26.15.71.41a1.91,1.91,0,0,1,1.71,0c.32.19.42.45.31.68a.73.73,0,0,1-.3.31l.25.15.21.12a5.8,5.8,0,0,1,5-.19l36.5-21.21.28-.17a1.5,1.5,0,0,1-.81-1.06A1.8,1.8,0,0,1,55.17,10.9ZM17.82,32.83l-.13,0a10.94,10.94,0,0,0-3.33,0l-.13,0L4,26.93l0-.08a2.13,2.13,0,0,0,0-1.92l0-.08L37.65,5.3l.12,0a10.94,10.94,0,0,0,3.33,0l.13,0,10.22,5.9,0,.08a2.18,2.18,0,0,0,0,1.93l0,.07Z"/><polygon class="cls-3" points="20.16 22.41 25.6 23.03 26.97 22.23 22.65 19.73 23.14 19.44 22.49 19.07 20.54 20.2 21.2 20.57 21.71 20.28 24.21 21.72 18.96 21.12 17.04 22.23 17.7 22.61 18.14 22.35 21.81 24.47 21.36 24.73 22.02 25.11 24.01 23.95 23.36 23.57 22.77 23.91 20.16 22.41"/><polygon class="cls-3" points="40.5 11.56 41.05 11.24 39.86 10.88 40.5 11.56"/><polygon class="cls-3" points="36.65 15.47 37.05 15.23 35.55 14.36 36.65 15.47"/><polygon class="cls-3" points="34.11 16.95 32.35 16.37 33.73 17.17 34.11 16.95"/><path class="cls-3" d="M38.92,14.52l-3.67-2.11.42-.24L35,11.79l-2.58,1.5L34.9,15.7l-4.21-1.4-2.57,1.49.65.38.4-.23,3.68,2.12-.41.24.65.37,1.72-1-.65-.37-.43.25-3.32-1.92.32-.18.19.07A10.69,10.69,0,0,0,32,16l3.72,1.21L37,16.38,35,14.31c-.11-.12-.49-.46-.79-.71l-.11-.09.33-.19,3.31,1.91-.43.25.66.38L40,14.66l-.66-.38Z"/><path class="cls-2" d="M51.43,13.21a2.18,2.18,0,0,1,0-1.93l0-.08L41.23,5.3l-.13,0a10.94,10.94,0,0,1-3.33,0l-.12,0L4,24.85l0,.08a2.13,2.13,0,0,1,0,1.92l0,.08,10.22,5.9.13,0a10.94,10.94,0,0,1,3.33,0l.13,0L51.46,13.28ZM17.68,32.53a12.23,12.23,0,0,0-3.31,0L4.52,26.85a2.34,2.34,0,0,0,0-1.92L37.79,5.6a12.23,12.23,0,0,0,3.31,0l9.84,5.68a2.34,2.34,0,0,0,0,1.92Z"/><path class="cls-2" d="M20.16,25l-3-1.72.46-.27-1.32-.77-2.83,1.65,1.33.76.47-.27,3,1.71-.47.28.13.08-2.15-.06,0,.18a.87.87,0,0,1-.39,1,2.38,2.38,0,0,1-2.21-.18c-.76-.44-1-1-.6-1.2a1.58,1.58,0,0,1,1.44.09l.16.08,1.67-1L13.39,24l-1.45.85.18.24a3.17,3.17,0,0,0-1.5.42c-1,.58-1.4,2,.51,3.13a5.81,5.81,0,0,0,5.71,0,2.14,2.14,0,0,0,1.28-2.05v0l1,.59L22,25.52l-1.34-.78Zm-3.65,3.43a5,5,0,0,1-5.06,0c-1.7-1-1.37-2.25-.5-2.75a2.55,2.55,0,0,1,1.48-.34l.4,0-.35-.48.92-.53,1.83,1.06-1,.6a2.16,2.16,0,0,0-1.91,0c-.61.35-.35,1,.61,1.58a3,3,0,0,0,2.86.18,1.06,1.06,0,0,0,.53-1.08l1.39,0A2,2,0,0,1,16.51,28.45Zm4.81-2.93-2.18,1.26-.69-.39.48-.28L15.31,24l-.48.28-.67-.39,2.18-1.27L17,23l-.46.27,3.62,2.09.46-.27Z"/><path class="cls-2" d="M22.77,23.54l-1.21-.7,4.19.48,1.87-1.09-4.32-2.5.5-.29-1.31-.75-2.6,1.51L21.2,21l.51-.3,1.11.64-4-.46-2.42,1.4L17.7,23l.44-.25,3,1.74-.44.26,1.3.76L24.66,24l-1.31-.75ZM24,24l-2,1.16-.66-.38.45-.26-3.67-2.12-.44.26L17,22.23,19,21.12l5.26.6-2.51-1.44-.51.29-.66-.37,1.95-1.13.65.37-.49.29L27,22.23,25.6,23l-5.44-.62,2.62,1.5.58-.33Z"/><path class="cls-2" d="M27.78,17.93,29.41,17l-2-1.15-4.87,2.83,1.33.77.47-.28,3,1.71-.47.28,1.33.77L33,19.08,31,17.9l-1.63,1,.71.41-.88.51-.92-.53,1.44-.83-1.34-.77L27,18.47l-.72-.42.88-.51Zm-2.2.12,1.37.8L28.39,18l.68.4-1.43.83,1.56.9,1.53-.88L30,18.85l1-.57,1.39.8-4.22,2.45-.68-.39.47-.28-3.62-2.09-.47.28-.68-.39,4.22-2.46,1.35.78-1,.57-.67-.38Z"/><path class="cls-2" d="M45,10.58,39.39,8.87l-3.18,1.85,1.3.75.26-.15,2.09,2.27-.56.32h0l-.39.23-3-1.74.42-.24L35,11.41l-3.16,1.84L33.61,15l-3-1-3.14,1.82,1.31.76.4-.24,3,1.75-.41.24,1.3.75,2.37-1.38L34.32,17l1.46.48,1.82-1.06-.9-.91,1.24.71,2.68-1.55,2.72-1.59L42,12.33l-.53.31-.13-.14,1.31-.76.25.07-.67.39,1.32.76,3.35-2-1.32-.76Zm-8.39,4.89-1.09-1.11,1.5.87Zm1.29.39-.66-.38.43-.25-3.31-1.91-.33.19.11.09c.3.25.68.59.79.71L37,16.38l-1.33.78L32,16a10.69,10.69,0,0,1-1.06-.43l-.19-.07-.32.18,3.32,1.92.43-.25.65.37-1.72,1-.65-.37.41-.24-3.68-2.12-.4.23-.65-.38,2.57-1.49,4.21,1.4-2.47-2.41L35,11.79l.66.38-.42.24,3.67,2.11.41-.24.66.38ZM34.11,17l-.38.22-1.38-.8ZM46.27,11l-2.7,1.57-.67-.38.78-.45-1.1-.34-1.79,1,.59.63.64-.37.67.38L40.62,14.3,40,13.91l.47-.27-2.54-2.76-.37.21-.65-.37,2.61-1.53,5.65,1.72.49-.28Z"/><path class="cls-2" d="M40.39,12l1.43-.83-3.09-.95Zm.11-.45-.64-.68,1.19.36Z"/><polygon class="cls-2" points="27.38 24.59 26.63 25.03 25.67 24.75 26.16 25.31 25.4 25.75 26.46 25.65 26.95 26.2 27.12 25.59 28.18 25.49 27.22 25.21 27.38 24.59"/><polygon class="cls-2" points="30.35 22.87 29.59 23.31 28.64 23.03 29.13 23.58 28.37 24.02 29.43 23.93 29.92 24.48 30.09 23.86 31.14 23.77 30.19 23.48 30.35 22.87"/><polygon class="cls-2" points="33.32 21.14 32.56 21.58 31.6 21.3 32.1 21.86 31.34 22.3 32.4 22.2 32.89 22.75 33.05 22.14 34.11 22.04 33.16 21.76 33.32 21.14"/><polygon class="cls-2" points="36.29 19.42 35.53 19.86 34.57 19.58 35.06 20.13 34.31 20.57 35.37 20.48 35.86 21.03 36.02 20.41 37.08 20.32 36.12 20.04 36.29 19.42"/><polygon class="cls-2" points="39.26 17.7 38.5 18.14 37.54 17.85 38.03 18.41 37.27 18.85 38.34 18.75 38.83 19.3 38.99 18.69 40.05 18.59 39.09 18.31 39.26 17.7"/><polygon class="cls-2" points="16.85 20.1 17.34 20.65 17.51 20.04 18.57 19.94 17.61 19.66 17.77 19.05 17.02 19.48 16.06 19.2 16.55 19.76 15.79 20.2 16.85 20.1"/><polygon class="cls-2" points="19.82 18.38 20.31 18.93 20.48 18.32 21.53 18.22 20.58 17.94 20.74 17.32 19.98 17.76 19.02 17.48 19.52 18.03 18.76 18.47 19.82 18.38"/><polygon class="cls-2" points="22.79 16.65 23.28 17.2 23.44 16.59 24.5 16.49 23.55 16.21 23.71 15.6 22.95 16.04 21.99 15.75 22.48 16.31 21.73 16.75 22.79 16.65"/><polygon class="cls-2" points="25.75 14.93 26.25 15.48 26.41 14.87 27.47 14.77 26.51 14.49 26.68 13.87 25.92 14.31 24.96 14.03 25.45 14.58 24.7 15.02 25.75 14.93"/><polygon class="cls-2" points="28.72 13.2 29.21 13.75 29.38 13.14 30.44 13.04 29.48 12.76 29.64 12.15 28.89 12.59 27.93 12.3 28.42 12.86 27.66 13.3 28.72 13.2"/><path class="cls-4" d="M48.74,18v-.37a.5.5,0,0,0-.3.69A.68.68,0,0,1,48.74,18Z"/><path class="cls-4" d="M46.05,16.48v-.37c-.44.22-.38.53-.31.68A.76.76,0,0,1,46.05,16.48Z"/><path class="cls-4" d="M54.11,21.14v-.37a.5.5,0,0,0-.31.68A.71.71,0,0,1,54.11,21.14Z"/><path class="cls-4" d="M56.29,22.39V22a1.81,1.81,0,0,0-1.11,1.83A2.11,2.11,0,0,1,56.29,22.39Z"/><path class="cls-4" d="M43.36,14.93v-.37c-.45.24-.38.53-.31.68A.83.83,0,0,1,43.36,14.93Z"/><path class="cls-4" d="M51.43,19.58v-.36c-.44.22-.37.52-.3.67A.71.71,0,0,1,51.43,19.58Z"/><path class="cls-4" d="M8.68,42.79c.11-.23,0-.49-.31-.67a1.85,1.85,0,0,0-1.71,0l-1-.56v.36l1,.56a1.91,1.91,0,0,1,1.71,0A.76.76,0,0,1,8.68,42.79Z"/><path class="cls-4" d="M11.37,44.35c.11-.24,0-.5-.31-.68a1.91,1.91,0,0,0-1.71,0l-1-.56c0,.13,0,.24,0,.36l1,.57a1.85,1.85,0,0,1,1.71,0A.66.66,0,0,1,11.37,44.35Z"/><path class="cls-4" d="M14.06,45.9c.11-.24,0-.5-.32-.68a1.89,1.89,0,0,0-1.7,0l-1-.56V45l1,.57a1.91,1.91,0,0,1,1.71,0A.71.71,0,0,1,14.06,45.9Z"/><path class="cls-4" d="M14.21,46.47l-.46-.26v.37l.46.26a5.87,5.87,0,0,1,5-.19L56,25.28v-.37L19.19,46.29A5.84,5.84,0,0,0,14.21,46.47Z"/><path class="cls-4" d="M3.31,39.69c.1-.23,0-.49-.32-.68a1.91,1.91,0,0,0-1.71,0l-.46-.26v.36l.47.27a1.91,1.91,0,0,1,1.71,0A.83.83,0,0,1,3.31,39.69Z"/><path class="cls-4" d="M1.94,37.29A1.42,1.42,0,0,0,1.42,36l-.29-.15v.37A1.5,1.5,0,0,1,1.94,37.29Z"/><path class="cls-4" d="M6,41.24c.1-.23,0-.49-.32-.67a1.85,1.85,0,0,0-1.71,0L3,40v.37l1,.56a1.91,1.91,0,0,1,1.71,0A.8.8,0,0,1,6,41.24Z"/><path class="cls-5" d="M40.3,20.52,37.68,22l.66.38.36-.21L41.24,25l-.47.27.67.39,2.08-1.21L42.85,24l-.65.37-.58-.63,1.78-1,1.1.34-.77.45.67.38,2.7-1.57L46.43,22l-.49.28Zm.91,2.8-1.65-1.77,3.08.95Z"/><path class="cls-5" d="M51.76,22.6l-9.84-5.68a11.84,11.84,0,0,1-3.31,0L5.34,36.25a2.38,2.38,0,0,1,0,1.92l9.85,5.69a11.47,11.47,0,0,1,3.31,0L51.77,24.52A2.38,2.38,0,0,1,51.76,22.6Zm-23,1,1,.29.76-.45-.17.62,1,.28-1.06.1-.16.61-.5-.55-1.05.1.75-.44Zm-3,1.73,1,.28.76-.44-.17.62,1,.28-1.06.09-.16.62-.49-.56-1.06.1.75-.44Zm2,4.44L29.2,29l1.34.77-1.43.83.91.53.88-.52-.71-.4,1.63-1,2,1.18L29,33.23l-1.34-.77.47-.28-3-1.71-.47.27L23.36,30l4.87-2.83,2,1.15-1.63.95-.68-.39-.88.51Zm-4.95-2.72.95.28.76-.44-.16.62,1,.28-1.06.1-.17.61L23.61,28l-1.06.1.76-.44Zm-3,1.73.95.28.76-.44-.16.61,1,.29-1.06.09-.17.62-.49-.56-1.06.1.76-.44Zm-3,1.72,1,.28.76-.44-.17.62,1,.28-1.06.1-.16.61-.5-.55-1.06.1.76-.44Zm3.08,8-1-.59v0A2.14,2.14,0,0,1,17.66,40a5.78,5.78,0,0,1-5.71,0c-1.91-1.1-1.5-2.55-.5-3.13a3.14,3.14,0,0,1,1.49-.42l-.18-.24,1.46-.85,2.48,1.44-1.67,1-.16-.08a1.55,1.55,0,0,0-1.44-.09c-.42.24-.16.76.61,1.2a2.36,2.36,0,0,0,2.2.18.86.86,0,0,0,.39-1v-.18l2.14.06-.13-.08.47-.28-3-1.71-.47.27-1.33-.76,2.83-1.65,1.32.77-.46.27,3,1.72.47-.28,1.34.78Zm2.88-1.68-1.3-.75.44-.26-3-1.74-.44.25-1.3-.75,2.41-1.4,4,.46L22.54,32l-.52.3-1.3-.75L23.31,30l1.31.75-.5.29,4.32,2.5-1.86,1.09-4.2-.49,1.22.71.58-.34,1.3.75Zm5.1.11-.16.61-.5-.55-1.06.1.76-.44-.49-.56,1,.28.76-.44-.17.62,1,.28Zm3-1.73-.17.62-.49-.56-1.06.1L30,34.9l-.49-.55,1,.28.75-.44L31,34.8l1,.28Zm3-1.72-.17.61-.49-.55-1.06.09.76-.43-.49-.56,1,.28.75-.44-.16.62,1,.28Zm3-1.73-.16.62-.49-.56-1.06.1.76-.44-.49-.55,1,.28.76-.44-.17.61,1,.28Zm3-1.72-.16.61-.49-.55-1.06.1.75-.44-.49-.56,1,.28.76-.44-.17.62,1,.28Zm4.59-5.73-1.32-.76.66-.39-.25-.07-1.31.76.13.14.53-.31,1.32.76L41.44,26l-2.68,1.56-1.24-.72.91.91-1.82,1.06-1.47-.48,1.14.66-2.36,1.38-1.31-.75.41-.24-3-1.75-.4.24-1.31-.76,3.15-1.82,3,1-1.76-1.71,3.17-1.84,1.3.75-.42.25,3,1.74.39-.23h0l.56-.32-2.09-2.27-.25.15L37,22l3.18-1.84,5.65,1.71.57-.33,1.32.76Z"/><polygon class="cls-5" points="29.59 28.3 28.24 27.52 24.01 29.98 24.69 30.37 25.16 30.09 28.78 32.18 28.31 32.46 28.99 32.85 33.22 30.4 31.83 29.6 30.84 30.17 31.55 30.57 30.02 31.46 28.46 30.56 29.89 29.73 29.21 29.33 27.77 30.17 26.4 29.37 27.93 28.48 28.61 28.88 29.59 28.3"/><path class="cls-5" d="M56,22.22l.29-.2-.45-.26a1.91,1.91,0,0,1-1.71,0,.8.8,0,0,1-.32-.31.43.43,0,0,1,.06-.46.78.78,0,0,1,.25-.22l-1-.56a1.91,1.91,0,0,1-1.71,0,.68.68,0,0,1-.31-.32.41.41,0,0,1,.05-.45.78.78,0,0,1,.25-.22l-1-.57a1.85,1.85,0,0,1-1.71,0,.69.69,0,0,1-.31-.3.45.45,0,0,1,0-.47.92.92,0,0,1,.25-.22l-1-.56a1.85,1.85,0,0,1-1.71,0,.77.77,0,0,1-.31-.31.45.45,0,0,1,0-.46,1,1,0,0,1,.26-.22l-1-.56a1.89,1.89,0,0,1-1.7,0,.8.8,0,0,1-.32-.31.43.43,0,0,1,.06-.46.79.79,0,0,1,.25-.22l-.46-.27a5.8,5.8,0,0,1-5,.19L1.13,35.86a2.43,2.43,0,0,1,.29.2,1.33,1.33,0,0,1,.52,1.23A2.11,2.11,0,0,1,.82,38.75l.3.17.16.09A1.91,1.91,0,0,1,3,39c.32.19.42.45.32.68A.71.71,0,0,1,3,40l.25.15.72.42a1.85,1.85,0,0,1,1.71,0c.32.18.42.44.32.67a.79.79,0,0,1-.31.32l.25.14.72.42a1.85,1.85,0,0,1,1.71,0c.32.18.42.44.31.67a.68.68,0,0,1-.31.32l.26.14.72.42a1.91,1.91,0,0,1,1.71,0c.31.18.42.44.31.68a.71.71,0,0,1-.31.31l.26.15.72.41a1.89,1.89,0,0,1,1.7,0c.32.18.43.44.32.68a.76.76,0,0,1-.31.31l.26.15.2.11a5.84,5.84,0,0,1,5-.18l36.5-21.21.29-.17a1.52,1.52,0,0,1-.81-1.06A1.77,1.77,0,0,1,56,22.22ZM18.64,44.15l-.13,0a10.94,10.94,0,0,0-3.33,0l-.13,0L4.83,38.25l0-.07a2.22,2.22,0,0,0,0-1.93l0-.08L38.47,16.62l.13,0a10.94,10.94,0,0,0,3.33,0l.12,0,10.23,5.9,0,.08a2.22,2.22,0,0,0,0,1.93l0,.07Z"/><path class="cls-5" d="M39.74,25.84l-3.67-2.11.42-.25-.65-.37-2.59,1.5L35.72,27l-4.2-1.39-2.58,1.49.66.38.4-.23,3.67,2.12-.41.24.66.37,1.72-1L35,28.62l-.43.25L31.24,27l.31-.18.19.06a9.93,9.93,0,0,0,1.06.44l3.72,1.21,1.34-.78-2.08-2.07c-.11-.12-.49-.46-.79-.71l-.11-.09.33-.19,3.31,1.91-.42.25.66.38L40.82,26l-.66-.38Z"/><path class="cls-5" d="M16.57,39.09a3,3,0,0,1-2.86-.18c-1-.56-1.22-1.23-.61-1.58a2.17,2.17,0,0,1,1.91,0l1-.6-1.83-1.06-.91.53.35.48-.41,0a2.56,2.56,0,0,0-1.48.34c-.87.5-1.19,1.78.5,2.75a5.06,5.06,0,0,0,5.06,0,2,2,0,0,0,1.16-1.72L17.1,38A1,1,0,0,1,16.57,39.09Z"/><polygon class="cls-5" points="37.47 26.79 37.87 26.55 36.37 25.68 37.47 26.79"/><polygon class="cls-5" points="34.94 28.27 33.17 27.69 34.55 28.49 34.94 28.27"/><polygon class="cls-5" points="41.32 22.88 41.87 22.56 40.68 22.2 41.32 22.88"/><polygon class="cls-5" points="17.37 34.62 17.84 34.35 17.16 33.96 14.98 35.23 15.65 35.62 16.13 35.34 19.75 37.43 19.27 37.71 19.96 38.1 22.14 36.84 21.45 36.44 20.99 36.71 17.37 34.62"/><polygon class="cls-5" points="20.99 33.72 26.43 34.35 27.8 33.55 23.47 31.05 23.97 30.76 23.32 30.39 21.37 31.52 22.02 31.89 22.53 31.59 25.04 33.04 19.78 32.44 17.87 33.55 18.52 33.93 18.96 33.67 22.63 35.79 22.19 36.05 22.84 36.43 24.83 35.27 24.18 34.9 23.6 35.23 20.99 33.72"/><path class="cls-4" d="M21,36.34l-3-1.72.46-.27-1.32-.77-2.83,1.65,1.33.76.47-.27,3,1.71-.47.28.13.08-2.14-.06v.18a.86.86,0,0,1-.39,1,2.36,2.36,0,0,1-2.2-.18c-.77-.44-1-1-.61-1.2a1.55,1.55,0,0,1,1.44.09l.16.08,1.67-1-2.48-1.44-1.46.85.18.24a3.14,3.14,0,0,0-1.49.42c-1,.58-1.41,2,.5,3.13a5.78,5.78,0,0,0,5.71,0,2.14,2.14,0,0,0,1.28-2.05v0l1,.59,2.83-1.64-1.34-.78Zm-3.65,3.43a5.06,5.06,0,0,1-5.06,0c-1.69-1-1.37-2.25-.5-2.75a2.56,2.56,0,0,1,1.48-.34l.41,0-.35-.48.91-.53,1.83,1.06-1,.6a2.17,2.17,0,0,0-1.91,0c-.61.35-.35,1,.61,1.58a3,3,0,0,0,2.86.18A1,1,0,0,0,17.1,38l1.39,0A2,2,0,0,1,17.33,39.77Zm4.81-2.93L20,38.1l-.68-.39.47-.28-3.62-2.09-.47.28L15,35.23,17.16,34l.68.39-.47.27L21,36.71l.47-.27Z"/><path class="cls-4" d="M24.62,30.76,23.31,30l-2.59,1.51,1.3.75.52-.3,1.1.64-4-.46-2.41,1.4,1.3.75.44-.25,3,1.74-.44.26,1.3.75,2.64-1.53-1.3-.75-.58.34-1.22-.71,4.2.49,1.86-1.09-4.32-2.5Zm3.18,2.79-1.38.8L21,33.72l2.61,1.51.58-.34.65.38-2,1.16-.65-.38.44-.26L19,33.67l-.44.26-.65-.38,1.91-1.11L25,33l-2.51-1.45-.51.3-.65-.37,1.95-1.14.65.38-.5.29Z"/><path class="cls-4" d="M30.19,30.17l.71.4-.88.52-.91-.53,1.43-.83L29.2,29l-1.43.83-.72-.42.88-.51.68.39,1.63-.95-2-1.15L23.36,30l1.33.76.47-.27,3,1.71-.47.28,1.34.77,4.87-2.83-2-1.18Zm3,.23L29,32.85l-.68-.39.47-.28-3.62-2.09-.47.28L24,30l4.23-2.46,1.35.78-1,.58-.68-.4-1.53.89,1.37.8,1.44-.84.68.4-1.43.83,1.56.9,1.53-.89-.71-.4,1-.57Z"/><path class="cls-4" d="M41.21,23.32l1.43-.82-3.08-.95Zm.11-.44-.64-.68,1.19.36Z"/><path class="cls-4" d="M44.4,24.28l3.35-2-1.32-.76-.57.33-5.65-1.71L37,22l1.31.76.25-.15,2.09,2.27-.56.32h0l-.39.23-3-1.74.42-.25-1.3-.75-3.17,1.84,1.76,1.71-3-1-3.15,1.82,1.31.76.4-.24,3,1.75-.41.24,1.31.75L36.28,29l-1.14-.66,1.47.48,1.82-1.06-.91-.91,1.24.72L41.44,26l2.72-1.59-1.32-.76-.53.31-.13-.14,1.31-.76.25.07-.66.39Zm-6.93,2.51-1.1-1.11,1.5.87Zm1.29.39-.66-.38.42-.25-3.31-1.91-.33.19.11.09c.3.25.68.59.79.71l2.08,2.07-1.34.78L32.8,27.27a9.93,9.93,0,0,1-1.06-.44l-.19-.06-.31.18,3.31,1.92.43-.25.66.37-1.72,1-.66-.37.41-.24L30,27.26l-.4.23-.66-.38,2.58-1.49L35.72,27l-2.47-2.4,2.59-1.5.65.37-.42.25,3.67,2.11.42-.24.66.38Zm-3.82,1.08-.39.23-1.38-.8Zm8.46-5.53-1.78,1,.58.63.65-.37.67.38-2.08,1.21-.67-.39.47-.27L38.7,22.2l-.36.21L37.68,22l2.62-1.51,5.64,1.71.49-.28.67.38L44.4,23.9l-.67-.38.77-.45Z"/><path class="cls-4" d="M52.25,24.53a2.22,2.22,0,0,1,0-1.93l0-.08-10.23-5.9-.12,0a10.94,10.94,0,0,1-3.33,0l-.13,0L4.82,36.17l0,.08a2.22,2.22,0,0,1,0,1.93l0,.07,10.22,5.9.13,0a10.94,10.94,0,0,1,3.33,0l.13,0L52.29,24.6ZM18.5,43.86a11.47,11.47,0,0,0-3.31,0L5.34,38.17a2.38,2.38,0,0,0,0-1.92L38.61,16.92a11.84,11.84,0,0,0,3.31,0l9.84,5.68a2.38,2.38,0,0,0,0,1.92Z"/><polygon class="cls-4" points="28.21 35.91 27.45 36.35 26.49 36.07 26.98 36.63 26.22 37.06 27.29 36.97 27.77 37.52 27.94 36.91 29 36.81 28.04 36.53 28.21 35.91"/><polygon class="cls-4" points="31.17 34.19 30.42 34.63 29.46 34.35 29.95 34.9 29.19 35.34 30.25 35.24 30.74 35.8 30.91 35.18 31.97 35.08 31.01 34.8 31.17 34.19"/><polygon class="cls-4" points="34.14 32.46 33.38 32.9 32.43 32.62 32.92 33.18 32.16 33.62 33.22 33.52 33.71 34.07 33.88 33.46 34.93 33.36 33.98 33.08 34.14 32.46"/><polygon class="cls-4" points="37.11 30.74 36.35 31.18 35.4 30.9 35.89 31.45 35.13 31.89 36.19 31.79 36.68 32.35 36.84 31.73 37.9 31.64 36.95 31.36 37.11 30.74"/><polygon class="cls-4" points="40.08 29.01 39.32 29.45 38.37 29.17 38.85 29.73 38.1 30.16 39.16 30.07 39.65 30.62 39.81 30.01 40.87 29.91 39.91 29.63 40.08 29.01"/><polygon class="cls-4" points="18.6 30.36 17.84 30.8 16.88 30.52 17.37 31.08 16.61 31.52 17.67 31.42 18.17 31.97 18.33 31.36 19.39 31.26 18.43 30.98 18.6 30.36"/><polygon class="cls-4" points="21.56 28.64 20.8 29.08 19.85 28.8 20.34 29.35 19.58 29.79 20.64 29.69 21.13 30.25 21.3 29.63 22.36 29.54 21.4 29.25 21.56 28.64"/><polygon class="cls-4" points="24.53 26.91 23.77 27.35 22.82 27.07 23.3 27.63 22.55 28.07 23.61 27.97 24.1 28.52 24.27 27.91 25.32 27.81 24.37 27.53 24.53 26.91"/><polygon class="cls-4" points="26.58 26.24 27.07 26.8 27.23 26.18 28.3 26.09 27.33 25.8 27.5 25.19 26.74 25.63 25.78 25.35 26.27 25.9 25.52 26.34 26.58 26.24"/><polygon class="cls-4" points="29.54 24.52 30.04 25.07 30.2 24.46 31.26 24.36 30.3 24.08 30.47 23.46 29.71 23.91 28.75 23.62 29.24 24.18 28.49 24.62 29.54 24.52"/><polygon class="cls-6" points="78.85 27.46 78.23 26.32 49.41 9.66 48.28 11.15 72.95 25.28 34.39 47.56 8.53 32.72 7.39 34.21 39.08 52.24 41.57 51.49 76.23 31.48 78.85 27.46"/><path class="cls-7" d="M37.89,37.24V45.3L14.52,28a2.9,2.9,0,0,0-.29-.19,1.37,1.37,0,0,0-2.27.6L10.47,32.1A2.78,2.78,0,0,1,9.1,33.9l-.57.3-.15.08,0,0-1.72-1,.72-.43a2.8,2.8,0,0,1,.46-3.36l3.09-5.88-.4-.23L11,23.1h0l.4-.23h0a1.63,1.63,0,0,1,1.76.11Z"/><path class="cls-7" d="M79.33,14.58v8.06L56,5.3l-.3-.19a1.49,1.49,0,0,0-2,.1,1.57,1.57,0,0,0-.28.49L51.92,9.45a2.84,2.84,0,0,1-1.37,1.8l-.58.3-.15.08,0,0-1.72-1,.72-.42a2.8,2.8,0,0,1,.46-3.36L52.33,1l-.4-.22.53-.31h0l.4-.24h0a1.67,1.67,0,0,1,1.77.12Z"/><path class="cls-8" d="M79.33,15.47v8.2l-24.18-18a2.49,2.49,0,0,0-.3-.19,2.06,2.06,0,0,0-1.17-.32,1.22,1.22,0,0,0-1.09.92L51.1,9.86A3.18,3.18,0,0,1,50,11.55l-.15.08,0,0a1.07,1.07,0,0,1-.94-.09,2.41,2.41,0,0,1-.61-.54c-1.2-1.44-.53-2.8.19-3.74L51.79.88a1.07,1.07,0,0,1,.67-.43h0a2,2,0,0,1,1.35.3Z"/><path class="cls-9" d="M79.33,18v3L59.25,6.62a.26.26,0,0,1,.28-.44Z"/><path class="cls-10" d="M37.89,38.12v8.2L13.7,28.37a2.9,2.9,0,0,0-.29-.19,2.07,2.07,0,0,0-1.18-.32,1.23,1.23,0,0,0-1.09.92L9.66,32.51A3.18,3.18,0,0,1,8.53,34.2l-.15.08,0,0a1,1,0,0,1-1-.09,2.39,2.39,0,0,1-.6-.54c-1.2-1.43-.53-2.8.19-3.73l3.36-6.41A1.16,1.16,0,0,1,11,23.1h0a2,2,0,0,1,1.35.3Z"/><path class="cls-7" d="M37.89,40.64v3L17.81,29.27a.26.26,0,0,1,.28-.43Z"/><path class="cls-9" d="M60.36,38.59v-.15h0l0-12.34h0l-1.88-1.18v0h0l0,12.49a1.25,1.25,0,0,0,.56,1.18h0l1.77,1.1A1.29,1.29,0,0,1,60.36,38.59Z"/><polygon class="cls-7" points="77.82 13.71 36.7 37.44 38.56 38.63 79.83 14.8 77.82 13.71"/><path class="cls-10" d="M38.6,51.12V51h0l0-12.34h0L36.7,37.44v0h0l0,12.49a1.25,1.25,0,0,0,.56,1.18h0l1.78,1.1A1.27,1.27,0,0,1,38.6,51.12Z"/><path class="cls-11" d="M56,40a2,2,0,0,1-.54,1.27,1.79,1.79,0,0,1-.35.28L41.79,49.17c-.5.29-.9.06-.91-.51l0-8.74,6.9-4,8.17-4.72Z"/><path class="cls-12" d="M77.54,27.5a2,2,0,0,1-.9,1.55l-1.53.88L63.37,36.71c-.49.29-.9.06-.9-.51l0-8.74,5-2.87,10.11-5.83Z"/><path class="cls-8" d="M79.83,14.8,38.56,38.63l0,12.49c0,1.15.82,1.61,1.82,1L56.33,43a4,4,0,0,0,1.8-3.13V33.39l2.2-1.27,0,6.45c0,1.15.81,1.61,1.81,1l15.91-9.19a4,4,0,0,0,1.81-3.13ZM55.06,41.51,41.79,49.18c-.5.28-.91,0-.91-.52l0-8.74,15.07-8.7L56,40A2,2,0,0,1,55.06,41.51ZM76.64,29.05,63.37,36.71c-.5.29-.9.06-.9-.51l0-8.74,15.07-8.7,0,8.74A2,2,0,0,1,76.64,29.05Z"/><path class="cls-13" d="M56,40a2,2,0,0,1-.54,1.27l-7.65-5.29,8.17-4.72Z"/><path class="cls-14" d="M77.54,27.5a2,2,0,0,1-.9,1.55l-1.53.88L67.4,24.59l10.11-5.83Z"/></g></g></g></svg>