<svg xmlns="http://www.w3.org/2000/svg" xmlns:xlink="http://www.w3.org/1999/xlink" viewBox="0 0 325.39 271.54"><defs><style>.cls-1{fill:none;}.cls-2{isolation:isolate;}.cls-3{fill:#2d4057;}.cls-14,.cls-4{fill:#456185;}.cls-28,.cls-4{opacity:0.3;}.cls-28,.cls-29,.cls-4,.cls-46,.cls-50,.cls-52,.cls-53,.cls-54{mix-blend-mode:multiply;}.cls-5{fill:#5e3930;}.cls-6{fill:#cc8b7c;}.cls-7{fill:#855044;}.cls-8{fill:#d4831b;}.cls-9{fill:#f4971f;}.cls-10{fill:#d67311;}.cls-11{fill:#fb9b3b;}.cls-12{fill:#fff;}.cls-13{fill:#141c26;}.cls-15{fill:#8196b3;}.cls-16{fill:#c1272d;}.cls-17{fill:#b3ebfc;}.cls-18{fill:#559cb4;}.cls-19{fill:#ffd8a8;}.cls-20{fill:#046080;}.cls-21{fill:#1390ba;}.cls-22{fill:#0b799e;}.cls-23{fill:#db3745;}.cls-24{fill:#a62a34;}.cls-25,.cls-53{fill:#ffb294;}.cls-26{fill:#ff9a73;}.cls-27{fill:#25435c;}.cls-28{fill:#89131c;}.cls-29,.cls-35{fill:#ccc;}.cls-30{fill:#42210b;}.cls-31{clip-path:url(#clip-path);}.cls-32{fill:url(#linear-gradient);}.cls-33,.cls-43{mix-blend-mode:overlay;}.cls-34{fill:#b3b3b3;}.cls-36{fill:#999;}.cls-37{fill:#4c4c4c;}.cls-38,.cls-43{fill:#333;}.cls-39{fill:gray;}.cls-40{fill:#656565;}.cls-41{fill:#a4a4a4;}.cls-42{fill:#474747;}.cls-44{fill:#464646;}.cls-45{fill:#696969;}.cls-46{fill:#ebc286;}.cls-46,.cls-50,.cls-52,.cls-53,.cls-54{opacity:0.5;}.cls-47{fill:#e64047;}.cls-48{fill:#f0845d;}.cls-49{fill:#e3363d;}.cls-50{fill:#f2946f;}.cls-51,.cls-52{fill:#662d91;}.cls-54{fill:#76afcf;}.cls-55{fill:#6c9d00;}.cls-56{fill:#754c24;}.cls-57{fill:#ba313b;}.cls-58{fill:#ff8a93;}.cls-59{fill:#fc4250;}.cls-60{fill:#92c700;}</style><clipPath id="clip-path"><path class="cls-1" d="M64.91,75.6c24.24-23.78,57-42.71,100.15-59.17V81.14C124.61,95.7,91,114.75,64.91,137.86Z"/></clipPath><linearGradient id="linear-gradient" x1="-308.51" y1="412.56" x2="-308.51" y2="303.57" gradientTransform="matrix(-1, 0.58, 0, 1, -194.65, -90.17)" gradientUnits="userSpaceOnUse"><stop offset="0" stop-color="#d9b6a1"/><stop offset="1" stop-color="#b87756"/></linearGradient></defs><title>Fichier 2</title><g class="cls-2"><g id="Calque_2" data-name="Calque 2"><g id="Layer_2" data-name="Layer 2"><path class="cls-3" d="M262.46,216.94a.55.55,0,0,1-.25-.07l-1.93-1.12a.51.51,0,0,1-.18-.69.5.5,0,0,1,.68-.19l1.93,1.12a.51.51,0,0,1,.18.69A.49.49,0,0,1,262.46,216.94Zm-5.13-3a.55.55,0,0,1-.25-.07l-1.92-1.12a.51.51,0,0,1-.19-.69.52.52,0,0,1,.69-.19l1.92,1.13a.49.49,0,0,1,.18.68A.49.49,0,0,1,257.33,214Zm-5.13-3a.45.45,0,0,1-.25-.07L250,209.77a.51.51,0,0,1-.19-.69.52.52,0,0,1,.69-.19l1.92,1.13a.5.5,0,0,1,.18.69A.5.5,0,0,1,252.2,211Zm-5.13-3a.45.45,0,0,1-.25-.07l-1.92-1.12a.5.5,0,1,1,.5-.87l1.92,1.12a.5.5,0,0,1,.18.69A.5.5,0,0,1,247.07,208Zm-5.13-3a.45.45,0,0,1-.25-.07l-1.92-1.12a.52.52,0,0,1-.19-.69.51.51,0,0,1,.69-.18l1.92,1.12a.5.5,0,0,1,.18.69A.5.5,0,0,1,241.94,205Zm-5.13-3a.47.47,0,0,1-.25-.07l-1.92-1.12a.52.52,0,0,1-.19-.69.51.51,0,0,1,.69-.18l1.92,1.12a.51.51,0,0,1,.18.69A.5.5,0,0,1,236.81,202Zm-5.13-3a.47.47,0,0,1-.25-.07l-1.92-1.12a.52.52,0,0,1-.19-.69.51.51,0,0,1,.69-.18l1.92,1.12a.51.51,0,0,1,.18.69A.5.5,0,0,1,231.68,199Zm-5.13-3a.47.47,0,0,1-.25-.07l-1.92-1.12a.51.51,0,0,1-.18-.69.49.49,0,0,1,.68-.18l1.92,1.12a.51.51,0,0,1,.18.69A.5.5,0,0,1,226.55,196Zm-5.13-3a.47.47,0,0,1-.25-.07l-1.92-1.12a.51.51,0,0,1-.18-.69.49.49,0,0,1,.68-.18l1.92,1.12a.51.51,0,0,1,.18.69A.5.5,0,0,1,221.42,193Zm-5.13-3A.47.47,0,0,1,216,190l-1.92-1.12a.5.5,0,0,1-.18-.69.49.49,0,0,1,.68-.18l1.92,1.12a.51.51,0,0,1,.18.69A.5.5,0,0,1,216.29,190Zm-5.13-3a.47.47,0,0,1-.25-.07L209,185.85a.5.5,0,0,1-.18-.69.49.49,0,0,1,.68-.18l1.92,1.12a.52.52,0,0,1,.19.69A.52.52,0,0,1,211.16,187Zm-5.13-3a.47.47,0,0,1-.25-.07l-1.92-1.12a.49.49,0,0,1-.18-.68.49.49,0,0,1,.68-.19l1.92,1.12a.52.52,0,0,1,.19.69A.51.51,0,0,1,206,184.05Zm-5.13-3a.57.57,0,0,1-.25-.06l-1.92-1.13a.49.49,0,0,1-.18-.68.49.49,0,0,1,.68-.19l1.92,1.12a.52.52,0,0,1,.19.69A.51.51,0,0,1,200.9,181.06Zm-5.13-3a.57.57,0,0,1-.25-.06l-1.92-1.13a.5.5,0,0,1,.5-.87l1.92,1.12a.5.5,0,0,1-.25.94Zm-5.13-3a.57.57,0,0,1-.25-.06l-1.92-1.12a.51.51,0,0,1-.18-.69A.5.5,0,0,1,189,173l1.92,1.12a.51.51,0,0,1,.19.69A.5.5,0,0,1,190.64,175.08Zm-5.12-3a.51.51,0,0,1-.25-.06l-1.93-1.12a.51.51,0,0,1-.18-.69.5.5,0,0,1,.68-.19l1.93,1.12a.51.51,0,0,1,.18.69A.5.5,0,0,1,185.52,172.09Zm-5.13-3a.52.52,0,0,1-.25-.07l-1.93-1.12a.51.51,0,0,1-.18-.69.5.5,0,0,1,.68-.19l1.93,1.12a.51.51,0,0,1,.18.69A.5.5,0,0,1,180.39,169.11Zm-5.13-3a.55.55,0,0,1-.25-.07l-1.93-1.12a.51.51,0,0,1,.5-.88l1.93,1.13a.49.49,0,0,1,.18.68A.49.49,0,0,1,175.26,166.12Zm-5.13-3a.45.45,0,0,1-.25-.07L168,161.94a.51.51,0,0,1,.5-.88l1.93,1.13a.49.49,0,0,1,.18.68A.49.49,0,0,1,170.13,163.13Zm-5.13-3a.45.45,0,0,1-.25-.07L162.82,159a.51.51,0,0,1-.18-.69.5.5,0,0,1,.68-.19l1.93,1.13a.5.5,0,0,1,.18.69A.5.5,0,0,1,165,160.14Zm-5.13-3a.45.45,0,0,1-.25-.07L157.69,156a.51.51,0,0,1-.18-.69.49.49,0,0,1,.68-.18l1.93,1.12a.5.5,0,0,1,.18.69A.5.5,0,0,1,159.87,157.15Zm-5.13-3a.45.45,0,0,1-.25-.07L152.56,153a.51.51,0,0,1-.18-.69.49.49,0,0,1,.68-.18l1.93,1.12a.5.5,0,0,1,.18.69A.5.5,0,0,1,154.74,154.16Zm-5.13-3a.45.45,0,0,1-.25-.07L147.43,150a.51.51,0,0,1-.18-.69.5.5,0,0,1,.68-.18l1.93,1.12a.51.51,0,0,1,.18.69A.5.5,0,0,1,149.61,151.17Zm-5.13-3a.45.45,0,0,1-.25-.07L142.31,147a.5.5,0,1,1,.5-.87l1.92,1.12a.51.51,0,0,1,.18.69A.5.5,0,0,1,144.48,148.18Zm-5.13-3a.45.45,0,0,1-.25-.07L137.18,144a.5.5,0,1,1,.5-.87l1.92,1.12a.51.51,0,0,1,.18.69A.5.5,0,0,1,139.35,145.19Zm-5.13-3a.45.45,0,0,1-.25-.07L132.05,141a.5.5,0,1,1,.5-.87l1.92,1.12a.51.51,0,0,1,.18.69A.5.5,0,0,1,134.22,142.2Zm-5.13-3a.45.45,0,0,1-.25-.07L126.92,138a.51.51,0,0,1-.19-.69.51.51,0,0,1,.69-.18l1.92,1.12a.51.51,0,0,1,.18.69A.5.5,0,0,1,129.09,139.21Zm-5.13-3a.45.45,0,0,1-.25-.07L121.79,135a.51.51,0,0,1-.19-.69.51.51,0,0,1,.69-.18l1.92,1.12a.51.51,0,0,1,.18.69A.5.5,0,0,1,124,136.22Zm-5.13-3a.57.57,0,0,1-.25-.06L116.66,132a.5.5,0,1,1,.5-.87l1.92,1.12a.51.51,0,0,1,.18.69A.5.5,0,0,1,118.83,133.23Zm-5.13-3a.57.57,0,0,1-.25-.06l-1.41-.82a.51.51,0,0,1-.18-.69.49.49,0,0,1,.68-.19l1.41.82a.51.51,0,0,1,.18.69A.5.5,0,0,1,113.7,130.24Z"/><path class="cls-3" d="M9.71,187.84a.5.5,0,0,1-.43-.25.51.51,0,0,1,.18-.69l1.93-1.12a.5.5,0,0,1,.68.18.51.51,0,0,1-.18.69L10,187.77A.45.45,0,0,1,9.71,187.84Zm5.13-3a.5.5,0,0,1-.43-.25.51.51,0,0,1,.18-.69l1.93-1.12a.5.5,0,0,1,.68.18.5.5,0,0,1-.18.69l-1.93,1.12A.45.45,0,0,1,14.84,184.85Zm5.13-3a.5.5,0,0,1-.43-.25.51.51,0,0,1,.18-.69l1.93-1.12a.5.5,0,0,1,.68.18.5.5,0,0,1-.18.69l-1.93,1.12A.45.45,0,0,1,20,181.86Zm5.13-3a.5.5,0,0,1-.43-.25.51.51,0,0,1,.18-.69l1.93-1.12a.5.5,0,0,1,.5.87l-1.93,1.12A.45.45,0,0,1,25.1,178.87Zm5.13-3a.5.5,0,0,1-.43-.25.51.51,0,0,1,.18-.69l1.93-1.12a.49.49,0,0,1,.68.19.5.5,0,0,1-.18.68l-1.93,1.13A.54.54,0,0,1,30.23,175.88Zm5.13-3a.5.5,0,0,1-.43-.25.51.51,0,0,1,.18-.69L37,170.83a.51.51,0,1,1,.5.88l-1.92,1.12A.54.54,0,0,1,35.36,172.89Zm5.13-3a.5.5,0,0,1-.43-.25.51.51,0,0,1,.18-.69l1.92-1.12a.51.51,0,0,1,.5.88l-1.92,1.12A.54.54,0,0,1,40.49,169.9Zm5.13-3a.49.49,0,0,1-.43-.26.51.51,0,0,1,.18-.69l1.92-1.12a.51.51,0,1,1,.5.88l-1.92,1.12A.55.55,0,0,1,45.62,166.92Zm5.13-3a.49.49,0,0,1-.43-.26.51.51,0,0,1,.18-.69l1.92-1.12a.51.51,0,0,1,.69.19.52.52,0,0,1-.19.69L51,163.86A.55.55,0,0,1,50.75,163.93Zm5.13-3a.49.49,0,0,1-.43-.26.49.49,0,0,1,.18-.68l1.92-1.13a.51.51,0,0,1,.69.19.52.52,0,0,1-.19.69l-1.92,1.12A.59.59,0,0,1,55.88,160.94ZM61,158a.5.5,0,0,1-.43-.25.5.5,0,0,1,.18-.69l1.92-1.13a.51.51,0,0,1,.69.19.52.52,0,0,1-.19.69l-1.92,1.12A.47.47,0,0,1,61,158Zm5.13-3a.5.5,0,0,1-.43-.25.5.5,0,0,1,.18-.69l1.92-1.12a.48.48,0,0,1,.68.18.51.51,0,0,1-.18.69l-1.92,1.12A.47.47,0,0,1,66.14,155Zm5.13-3a.52.52,0,0,1-.44-.25A.51.51,0,0,1,71,151l1.92-1.12a.48.48,0,0,1,.68.18.51.51,0,0,1-.18.69l-1.92,1.12A.47.47,0,0,1,71.27,152Zm5.13-3a.52.52,0,0,1-.44-.25.52.52,0,0,1,.19-.69l1.92-1.12a.49.49,0,0,1,.68.18.51.51,0,0,1-.18.69l-1.92,1.12A.47.47,0,0,1,76.4,149Zm5.13-3a.51.51,0,0,1-.44-.25.52.52,0,0,1,.19-.69l1.92-1.12a.49.49,0,0,1,.68.18.51.51,0,0,1-.18.69l-1.92,1.12A.47.47,0,0,1,81.53,146Zm5.13-3a.51.51,0,0,1-.44-.25.52.52,0,0,1,.19-.69l1.92-1.12a.49.49,0,0,1,.68.18.51.51,0,0,1-.18.69l-1.92,1.12A.47.47,0,0,1,86.66,143Zm5.13-3a.51.51,0,0,1-.44-.25.52.52,0,0,1,.19-.69L93.46,138a.49.49,0,0,1,.68.18.51.51,0,0,1-.18.69L92,139.94A.47.47,0,0,1,91.79,140Zm5.13-3a.5.5,0,0,1-.25-.94L98.59,135a.49.49,0,0,1,.68.18.5.5,0,0,1-.18.69L97.17,137A.47.47,0,0,1,96.92,137Zm5.13-3a.5.5,0,0,1-.44-.25.51.51,0,0,1,.19-.69l1.92-1.12a.49.49,0,0,1,.68.18.5.5,0,0,1-.18.69L102.3,134A.47.47,0,0,1,102.05,134Zm5.13-3a.5.5,0,0,1-.44-.25.51.51,0,0,1,.19-.69l1.92-1.12a.5.5,0,0,1,.5.87L107.43,131A.47.47,0,0,1,107.18,131Zm5.13-3a.5.5,0,0,1-.44-.25.51.51,0,0,1,.18-.69L114,126a.5.5,0,0,1,.5.87L112.55,128A.5.5,0,0,1,112.31,128.05Zm5.12-3a.5.5,0,0,1-.43-.25.51.51,0,0,1,.18-.69l1.93-1.12a.5.5,0,0,1,.5.87L117.68,125A.51.51,0,0,1,117.43,125.06Zm5.13-3a.5.5,0,0,1-.43-.25.51.51,0,0,1,.18-.69l1.93-1.12a.5.5,0,0,1,.68.19.51.51,0,0,1-.18.69L122.81,122A.51.51,0,0,1,122.56,122.07Zm5.13-3a.5.5,0,0,1-.43-.25.51.51,0,0,1,.18-.69l1.93-1.12a.5.5,0,0,1,.68.19.51.51,0,0,1-.18.69L127.94,119A.54.54,0,0,1,127.69,119.08Zm5.13-3a.49.49,0,0,1-.43-.26.51.51,0,0,1,.18-.69L134.5,114a.5.5,0,0,1,.68.19.51.51,0,0,1-.18.69L133.07,116A.55.55,0,0,1,132.82,116.1Zm5.13-3a.49.49,0,0,1-.43-.26.49.49,0,0,1,.18-.68l1.93-1.13a.5.5,0,0,1,.68.19.51.51,0,0,1-.18.69L138.2,113A.55.55,0,0,1,138,113.11Zm5.13-3a.5.5,0,0,1-.43-.25.5.5,0,0,1,.18-.69l1.93-1.13a.5.5,0,0,1,.68.19.51.51,0,0,1-.18.69l-1.93,1.12A.45.45,0,0,1,143.08,110.12Zm5.13-3a.5.5,0,0,1-.43-.25.5.5,0,0,1,.18-.69l1.93-1.12a.49.49,0,0,1,.68.18.51.51,0,0,1-.18.69l-1.93,1.12A.45.45,0,0,1,148.21,107.13Zm5.13-3a.5.5,0,0,1-.43-.25.5.5,0,0,1,.18-.69l1.92-1.12a.5.5,0,1,1,.5.87l-1.92,1.12A.45.45,0,0,1,153.34,104.14Zm5.13-3a.5.5,0,0,1-.43-.25.51.51,0,0,1,.18-.69l1.92-1.12a.5.5,0,1,1,.5.87l-1.92,1.12A.45.45,0,0,1,158.47,101.15Zm5.13-3a.5.5,0,0,1-.43-.25.51.51,0,0,1,.18-.69l1.92-1.12a.5.5,0,1,1,.5.87l-1.92,1.12A.45.45,0,0,1,163.6,98.16Zm5.13-3a.5.5,0,0,1-.43-.25.51.51,0,0,1,.18-.69l1.92-1.12a.51.51,0,0,1,.69.18.52.52,0,0,1-.19.69L169,95.1A.47.47,0,0,1,168.73,95.17Zm5.13-3a.5.5,0,0,1-.43-.25.51.51,0,0,1,.18-.69l1.92-1.12a.51.51,0,0,1,.69.18A.52.52,0,0,1,176,91l-1.92,1.12A.47.47,0,0,1,173.86,92.18Zm5.13-3a.5.5,0,0,1-.43-.25.51.51,0,0,1,.18-.69l1.92-1.12a.51.51,0,0,1,.69.18.51.51,0,0,1-.19.69l-1.92,1.12A.47.47,0,0,1,179,89.19Zm5.13-3a.5.5,0,0,1-.43-.25.51.51,0,0,1,.18-.69l1.92-1.12a.49.49,0,0,1,.68.18.5.5,0,0,1-.18.69l-1.92,1.12A.47.47,0,0,1,184.12,86.2Zm5.13-3a.5.5,0,0,1-.43-.25.51.51,0,0,1,.18-.69l1.92-1.12a.49.49,0,0,1,.68.19.49.49,0,0,1-.18.68l-1.92,1.12A.47.47,0,0,1,189.25,83.21Zm5.13-3a.52.52,0,0,1-.44-.25.52.52,0,0,1,.19-.69l1.92-1.12a.49.49,0,0,1,.68.19.49.49,0,0,1-.18.68l-1.92,1.13A.57.57,0,0,1,194.38,80.22Zm5.13-3a.52.52,0,0,1-.44-.25.52.52,0,0,1,.19-.69l1.92-1.12a.5.5,0,0,1,.5.87l-1.92,1.13A.57.57,0,0,1,199.51,77.23Zm5.13-3a.52.52,0,0,1-.44-.25.52.52,0,0,1,.19-.69l1.92-1.12a.5.5,0,0,1,.68.19.51.51,0,0,1-.18.69l-1.92,1.12A.57.57,0,0,1,204.64,74.24Zm5.13-3a.52.52,0,0,1-.44-.26.51.51,0,0,1,.19-.69l1.92-1.12a.5.5,0,0,1,.68.19.51.51,0,0,1-.18.69L210,71.19A.59.59,0,0,1,209.77,71.26Zm5.13-3a.5.5,0,0,1-.44-.26.51.51,0,0,1,.19-.69l1.92-1.12a.5.5,0,0,1,.68.19.51.51,0,0,1-.18.69l-1.92,1.12A.59.59,0,0,1,214.9,68.27Zm5.13-3a.49.49,0,0,1-.44-.26.51.51,0,0,1,.19-.69l1.92-1.12a.51.51,0,0,1,.5.88l-1.92,1.12A.59.59,0,0,1,220,65.28Zm5.12-3a.49.49,0,0,1-.43-.26.5.5,0,0,1,.18-.68l1.19-.7a.51.51,0,0,1,.69.19.52.52,0,0,1-.19.69l-1.19.69A.43.43,0,0,1,225.15,62.29Z"/><path class="cls-4" d="M246.91,102,222.59,87.86,185,109.79,209.27,124ZM219.18,91.51l3.23-1.89,3.22,1.89-3.22,1.88Zm6.12,3.56,3.22-1.88,3.23,1.88L228.52,97Zm6.11,3.57,3.23-1.89,3.23,1.89-3.23,1.88Zm6.12,3.56,3.23-1.88L244,102.2l-3.23,1.88Zm-41.17,3.56,19.3-11.25a4.37,4.37,0,0,1,4,0l15.94,9.28a1.24,1.24,0,0,1,0,2.34L216.3,117.38a4.37,4.37,0,0,1-4,0l-15.93-9.29A1.23,1.23,0,0,1,196.36,105.76ZM188,109.69l3.23-1.89,3.23,1.89-3.23,1.88Zm6.12,3.56,3.23-1.88,3.23,1.88-3.23,1.88Zm6.12,3.57,3.23-1.89,3.22,1.89-3.22,1.88Zm6.12,3.56,3.22-1.88,3.23,1.88-3.23,1.88Z"/></g><g id="Layer_1" data-name="Layer 1"><path class="cls-4" d="M159.12,248.11c4.67,2.72,4.67,7.14,0,9.86s-12.24,2.72-16.91,0-4.67-7.14,0-9.86S154.45,245.39,159.12,248.11Z"/><path class="cls-5" d="M281.91,189.41v2.21c0,2.47,1.62,4.95,4.86,6.83,6.48,3.78,17,3.78,23.45,0,3.24-1.88,4.86-4.36,4.86-6.83v-2.21Z"/><ellipse class="cls-6" cx="298.5" cy="189.41" rx="16.58" ry="9.66"/><path class="cls-5" d="M293.91,186.28v1.82a2.3,2.3,0,0,0,1.34,1.88,7.08,7.08,0,0,0,6.49,0,2.3,2.3,0,0,0,1.34-1.88v-1.82Z"/><ellipse class="cls-7" cx="298.5" cy="186.28" rx="4.58" ry="2.67"/><path class="cls-5" d="M296.7,88v97.23a.93.93,0,0,0,.53.74,2.82,2.82,0,0,0,2.53,0,.93.93,0,0,0,.53-.74V88Z"/><ellipse class="cls-6" cx="298.5" cy="88.01" rx="1.79" ry="1.05"/><path class="cls-8" d="M279.35,99.15a.23.23,0,0,1-.23-.23V93.79a.23.23,0,1,1,.46,0v5.13A.23.23,0,0,1,279.35,99.15Z"/><path class="cls-8" d="M279.61,100.16a.23.23,0,0,1-.23-.24V94.79a.23.23,0,1,1,.46,0v5.13A.23.23,0,0,1,279.61,100.16Z"/><path class="cls-8" d="M280,101.15a.23.23,0,0,1-.23-.23V95.78a.23.23,0,0,1,.23-.23.24.24,0,0,1,.23.23v5.14A.23.23,0,0,1,280,101.15Z"/><path class="cls-8" d="M280.6,102.12a.23.23,0,0,1-.23-.23V96.76a.23.23,0,1,1,.46,0v5.13A.23.23,0,0,1,280.6,102.12Z"/><path class="cls-8" d="M281.32,103.06a.23.23,0,0,1-.23-.23V97.7a.23.23,0,0,1,.23-.23.23.23,0,0,1,.23.23v5.13A.23.23,0,0,1,281.32,103.06Z"/><path class="cls-8" d="M282.2,104a.23.23,0,0,1-.23-.23V98.61a.23.23,0,1,1,.46,0v5.13A.23.23,0,0,1,282.2,104Z"/><path class="cls-8" d="M283.24,104.84a.23.23,0,0,1-.23-.23V99.48a.23.23,0,0,1,.23-.24.24.24,0,0,1,.23.24v5.13A.23.23,0,0,1,283.24,104.84Z"/><path class="cls-8" d="M284.43,105.66a.23.23,0,0,1-.24-.23V100.3a.24.24,0,1,1,.47,0v5.13A.23.23,0,0,1,284.43,105.66Z"/><path class="cls-8" d="M285.5,106.29a.23.23,0,0,1-.23-.24v-5.13a.23.23,0,0,1,.46,0v5.13A.23.23,0,0,1,285.5,106.29Z"/><path class="cls-8" d="M286.5,106.79a.23.23,0,0,1-.23-.23v-5.13a.24.24,0,1,1,.47,0v5.13A.23.23,0,0,1,286.5,106.79Z"/><path class="cls-8" d="M287.55,107.25a.23.23,0,0,1-.23-.24v-5.13a.23.23,0,1,1,.46,0V107A.23.23,0,0,1,287.55,107.25Z"/><path class="cls-8" d="M288.63,107.66a.23.23,0,0,1-.23-.24v-5.13a.23.23,0,0,1,.46,0v5.13A.23.23,0,0,1,288.63,107.66Z"/><path class="cls-8" d="M289.75,108a.23.23,0,0,1-.23-.23v-5.14a.23.23,0,0,1,.46,0v5.14A.23.23,0,0,1,289.75,108Z"/><path class="cls-8" d="M290.9,108.34a.23.23,0,0,1-.23-.24V103a.23.23,0,1,1,.46,0v5.13A.23.23,0,0,1,290.9,108.34Z"/><path class="cls-8" d="M292.07,108.6a.23.23,0,0,1-.23-.23v-5.13a.23.23,0,0,1,.46,0v5.13A.23.23,0,0,1,292.07,108.6Z"/><path class="cls-8" d="M293.27,108.83a.23.23,0,0,1-.23-.24v-5.13a.23.23,0,0,1,.23-.23.23.23,0,0,1,.23.23v5.13A.24.24,0,0,1,293.27,108.83Z"/><path class="cls-8" d="M294.48,109a.23.23,0,0,1-.23-.23v-5.13a.23.23,0,1,1,.46,0v5.13A.23.23,0,0,1,294.48,109Z"/><path class="cls-8" d="M295.71,109.13a.23.23,0,0,1-.23-.23v-5.13a.23.23,0,0,1,.23-.24.24.24,0,0,1,.23.24v5.13A.23.23,0,0,1,295.71,109.13Z"/><path class="cls-8" d="M296.94,109.21a.23.23,0,0,1-.23-.23v-5.13a.23.23,0,1,1,.46,0V109A.23.23,0,0,1,296.94,109.21Z"/><path class="cls-8" d="M298.18,109.25A.24.24,0,0,1,298,109v-5.13a.23.23,0,0,1,.23-.23.23.23,0,0,1,.23.23V109A.23.23,0,0,1,298.18,109.25Z"/><path class="cls-8" d="M299.43,109.23a.23.23,0,0,1-.24-.23v-5.13a.24.24,0,0,1,.47,0V109A.23.23,0,0,1,299.43,109.23Z"/><path class="cls-8" d="M300.66,109.18a.24.24,0,0,1-.23-.24v-5.13a.24.24,0,0,1,.47,0v5.13A.24.24,0,0,1,300.66,109.18Z"/><path class="cls-8" d="M301.9,109.07a.23.23,0,0,1-.24-.23V103.7a.24.24,0,0,1,.47,0v5.14A.23.23,0,0,1,301.9,109.07Z"/><path class="cls-8" d="M303.12,108.92a.24.24,0,0,1-.24-.24v-5.13a.24.24,0,0,1,.47,0v5.13A.24.24,0,0,1,303.12,108.92Z"/><path class="cls-8" d="M304.32,108.72a.23.23,0,0,1-.23-.24v-5.13a.23.23,0,0,1,.46,0v5.13A.23.23,0,0,1,304.32,108.72Z"/><path class="cls-8" d="M305.51,108.47a.23.23,0,0,1-.24-.23v-5.13a.24.24,0,1,1,.47,0v5.13A.23.23,0,0,1,305.51,108.47Z"/><path class="cls-8" d="M306.67,108.18a.24.24,0,0,1-.24-.24v-5.13a.24.24,0,0,1,.47,0v5.13A.24.24,0,0,1,306.67,108.18Z"/><path class="cls-8" d="M307.8,107.84a.23.23,0,0,1-.23-.24v-5.13a.23.23,0,1,1,.46,0v5.13A.23.23,0,0,1,307.8,107.84Z"/><path class="cls-8" d="M308.9,107.45a.23.23,0,0,1-.23-.23v-5.13a.23.23,0,1,1,.46,0v5.13A.23.23,0,0,1,308.9,107.45Z"/><path class="cls-8" d="M310,107a.23.23,0,0,1-.23-.24v-5.13a.23.23,0,1,1,.46,0v5.13A.23.23,0,0,1,310,107Z"/><path class="cls-8" d="M311,106.54a.24.24,0,0,1-.24-.24v-5.13a.24.24,0,0,1,.47,0v5.13A.24.24,0,0,1,311,106.54Z"/><path class="cls-8" d="M312,106a.24.24,0,0,1-.23-.23v-5.14a.24.24,0,0,1,.47,0v5.14A.24.24,0,0,1,312,106Z"/><path class="cls-8" d="M313.19,105.24A.24.24,0,0,1,313,105V99.87a.24.24,0,0,1,.47,0V105A.24.24,0,0,1,313.19,105.24Z"/><path class="cls-8" d="M314.31,104.38a.23.23,0,0,1-.24-.23V99a.24.24,0,1,1,.47,0v5.13A.23.23,0,0,1,314.31,104.38Z"/><path class="cls-8" d="M315.27,103.48a.23.23,0,0,1-.24-.23V98.11a.24.24,0,0,1,.47,0v5.14A.23.23,0,0,1,315.27,103.48Z"/><path class="cls-8" d="M316.07,102.54a.23.23,0,0,1-.23-.23V97.18a.23.23,0,1,1,.46,0v5.13A.23.23,0,0,1,316.07,102.54Z"/><path class="cls-8" d="M316.71,101.57a.23.23,0,0,1-.23-.23V96.21a.24.24,0,1,1,.47,0v5.13A.23.23,0,0,1,316.71,101.57Z"/><path class="cls-8" d="M317.2,100.58a.23.23,0,0,1-.23-.24V95.21a.23.23,0,0,1,.46,0v5.13A.23.23,0,0,1,317.2,100.58Z"/><path class="cls-8" d="M317.53,99.56a.23.23,0,0,1-.23-.23V94.2a.23.23,0,1,1,.46,0v5.13A.23.23,0,0,1,317.53,99.56Z"/><path class="cls-8" d="M317.7,98.54a.24.24,0,0,1-.23-.23V93.17a.24.24,0,0,1,.47,0v5.14A.24.24,0,0,1,317.7,98.54Z"/><path class="cls-9" d="M312.22,101.26c-7.59,4.43-19.88,4.43-27.48,0-3.78-2.21-5.68-5.1-5.68-8a6.91,6.91,0,0,1,.44-2.39l.53-1.45,7.09-19.28h22.73l6.87,18.64s.76,2.09.76,2.09C318.81,94.51,317.06,98.44,312.22,101.26Z"/><path class="cls-10" d="M311.29,99.64a27.62,27.62,0,0,1-12.8,3.07,25.77,25.77,0,0,1-12.81-3.07c-3.9-2.25-6.72-7.33-5.65-10.22l7.09-19.28h22.73l6.87,18.64C317.78,91.7,316.71,96.76,311.29,99.64Z"/><path class="cls-11" d="M306.7,76.35a13.29,13.29,0,0,1-2.51,1.12,19.33,19.33,0,0,1-11.42,0,13.2,13.2,0,0,1-2.5-1.12c-4.54-2.64-4.54-6.93,0-9.58s11.89-2.64,16.43,0S311.24,73.71,306.7,76.35Z"/><path class="cls-12" d="M304.19,77.47a19.33,19.33,0,0,1-11.42,0,4.23,4.23,0,0,1,1.59-2.21,7.17,7.17,0,0,1,8.25,0A4.21,4.21,0,0,1,304.19,77.47Z"/><polygon class="cls-4" points="153.32 236.86 212.58 271.54 225.53 264.02 222.32 261.57 306.72 211.94 310.89 214.28 325.39 205.32 312.87 196.63 282.51 189.45 153.32 236.86"/><polygon class="cls-4" points="0 191.74 12.78 184.29 24.3 191 11.52 198.45 0 191.74"/><polygon class="cls-4" points="36.98 159.28 34.26 160.86 10.15 174.91 7.44 176.49 29.16 189.15 31.87 187.56 55.98 173.51 58.7 171.93 36.98 159.28"/><polygon class="cls-4" points="210.34 68.19 223.13 60.74 234.64 67.45 221.86 74.9 210.34 68.19"/><polygon class="cls-4" points="198.61 63.06 195.9 64.64 171.79 78.69 169.07 80.27 190.79 92.93 193.51 91.34 217.61 77.3 220.33 75.71 198.61 63.06"/><path class="cls-4" d="M130.68,120.41l-1.13-.62a9.1,9.1,0,0,0-3.69-1.59c-10.19-3.68-23.74-2.94-32.58,2.21s-10.08,12.88-4,18.8a10.26,10.26,0,0,0,2.7,2.17c.42.28.85.56,1.31.83,10.33,6,27.07,6,37.4,0S141,126.43,130.68,120.41Z"/><polygon class="cls-13" points="212.95 68.06 222 73.32 222 62.06 212.95 56.79 212.95 68.06"/><polygon class="cls-14" points="222 73.32 232.03 67.47 232.03 56.21 222 62.06 222 73.32"/><path class="cls-13" d="M222.88,67.15c0,2.3,1.85,3.09,4.13,1.76s4.13-4.27,4.13-6.57-1.85-3.09-4.13-1.77S222.88,64.85,222.88,67.15Z"/><path class="cls-3" d="M223.88,66.57c0,1.75,1.4,2.35,3.13,1.34a6.59,6.59,0,0,0,3.14-5c0-1.75-1.41-2.35-3.14-1.34A6.56,6.56,0,0,0,223.88,66.57Z"/><path class="cls-13" d="M225.57,65.59c0,.8.64,1.08,1.44.62a3,3,0,0,0,1.45-2.31c0-.81-.65-1.08-1.45-.62A3,3,0,0,0,225.57,65.59Z"/><polygon class="cls-15" points="212.95 56.79 222.99 50.94 232.03 56.21 222 62.06 212.95 56.79"/><polygon class="cls-3" points="172.19 79.75 191.27 90.87 191.27 55.07 172.19 43.95 172.19 79.75"/><polygon class="cls-13" points="217.21 75.75 198.13 64.63 198.13 28.83 217.21 39.95 217.21 75.75"/><polygon class="cls-14" points="193.65 89.48 214.83 77.14 214.83 41.34 193.65 53.68 193.65 89.48"/><polygon class="cls-13" points="191.27 90.87 193.65 89.48 193.65 53.68 191.27 55.07 191.27 90.87"/><polygon class="cls-13" points="214.83 77.14 217.21 75.75 217.21 39.95 214.83 41.34 214.83 77.14"/><ellipse class="cls-13" cx="204.24" cy="71.38" rx="11.66" ry="6.58" transform="translate(25.48 193.25) rotate(-53.55)"/><ellipse class="cls-3" cx="204.24" cy="71.38" rx="8.84" ry="4.99" transform="matrix(0.59, -0.8, 0.8, 0.59, 25.48, 193.25)"/><path class="cls-13" d="M201.18,73.16c0,1.7,1.37,2.28,3.06,1.3a6.38,6.38,0,0,0,3-4.86c0-1.71-1.36-2.29-3-1.31A6.41,6.41,0,0,0,201.18,73.16Z"/><path class="cls-13" d="M199.23,57.55c0,2.79,2.24,3.75,5,2.14s5-5.19,5-8-2.24-3.75-5-2.13S199.23,54.75,199.23,57.55Z"/><path class="cls-3" d="M201.37,56.3c0,1.59,1.29,2.14,2.87,1.22A6,6,0,0,0,207.1,53c0-1.6-1.28-2.15-2.86-1.23A6,6,0,0,0,201.37,56.3Z"/><path class="cls-13" d="M202.48,55.65c0,1,.79,1.32,1.76.75A3.68,3.68,0,0,0,206,53.6c0-1-.79-1.31-1.76-.75A3.7,3.7,0,0,0,202.48,55.65Z"/><polygon class="cls-13" points="195.75 30.22 198.13 28.83 217.21 39.95 214.83 41.34 195.75 30.22"/><polygon class="cls-13" points="172.19 43.95 174.57 42.56 193.65 53.68 191.27 55.07 172.19 43.95"/><polygon class="cls-15" points="174.57 42.56 195.75 30.22 214.83 41.34 193.65 53.68 174.57 42.56"/><polygon class="cls-3" points="60.94 146.96 57.11 145.61 57.11 72.67 60.94 74.02 60.94 146.96"/><path class="cls-13" d="M87.4,129.64v-2.53h49.16v2.54c0,3.66-2.4,7.33-7.2,10.12-9.6,5.6-25.16,5.6-34.76,0C89.8,137,87.4,133.31,87.4,129.64Z"/><ellipse class="cls-3" cx="111.98" cy="127.11" rx="24.58" ry="14.32"/><path class="cls-13" d="M102,123.91V67.33h10.81v56.58a2.72,2.72,0,0,1-1.58,2.23,8.39,8.39,0,0,1-7.65,0A2.7,2.7,0,0,1,102,123.91Z"/><polygon class="cls-13" points="127.09 28.66 81.25 55.37 77.52 45.22 109.67 26.48 127.09 28.66"/><polygon class="cls-13" points="81.25 101.19 77.52 91.04 77.52 45.22 81.25 55.37 81.25 101.19"/><path class="cls-3" d="M169,84c-44.7,15.75-81.07,37-108.1,63l-3.83-1.35c1.26-1.2,2.53-2.4,3.83-3.59,27-24.76,62.54-45,105.78-60.27Z"/><path class="cls-13" d="M169,11V84c-44.7,15.75-81.07,37-108.1,63V74C88,44.32,124.93,24.18,169,11Z"/><path class="cls-15" d="M64.91,75.6c24.24-23.78,57-42.71,100.15-59.17V81.14C124.61,95.7,91,114.75,64.91,137.86Z"/><path class="cls-14" d="M169,11C124.34,26.78,88,48,60.94,74l-3.83-1.35C84.52,46.26,121.4,24.77,166.72,8.8Z"/><path class="cls-16" d="M133.54,36.33c-25.91,12.52-46.73,26.39-63,42v3.41c16.32-15.59,37.14-29.46,63.05-42Z"/><path class="cls-12" d="M118,51.17c-18.84,10.37-34.59,21.62-47.5,34v3.41C83.4,76.21,99.15,65,118,54.59Z"/><path class="cls-12" d="M90.28,75.49A194.13,194.13,0,0,0,70.49,92v3.41A194.13,194.13,0,0,1,90.28,78.9Z"/><path class="cls-12" d="M118.22,64.69c-19,10.4-34.76,21.7-47.73,34.09v3.41c13-12.39,28.78-23.68,47.73-34.08Z"/><path class="cls-12" d="M118.44,71.39c-19,10.44-34.93,21.77-47.95,34.21V109c13-12.43,28.91-23.77,48-34.21Z"/><polygon class="cls-3" points="9.77 176.01 28.84 187.13 28.84 151.33 9.77 140.21 9.77 176.01"/><polygon class="cls-13" points="54.78 172.01 35.71 160.89 35.71 125.09 54.78 136.21 54.78 172.01"/><polygon class="cls-14" points="31.23 185.74 52.4 173.4 52.4 137.6 31.23 149.94 31.23 185.74"/><polygon class="cls-13" points="28.84 187.13 31.23 185.74 31.23 149.94 28.84 151.33 28.84 187.13"/><polygon class="cls-13" points="52.4 173.4 54.78 172.01 54.78 136.21 52.4 137.6 52.4 173.4"/><ellipse class="cls-13" cx="41.81" cy="167.64" rx="11.66" ry="6.58" transform="translate(-117.87 101.67) rotate(-53.55)"/><ellipse class="cls-3" cx="41.81" cy="167.64" rx="8.84" ry="4.99" transform="translate(-117.87 101.67) rotate(-53.55)"/><path class="cls-13" d="M38.76,169.42c0,1.7,1.37,2.28,3.05,1.3a6.39,6.39,0,0,0,3.06-4.87c0-1.7-1.37-2.28-3.06-1.3A6.41,6.41,0,0,0,38.76,169.42Z"/><path class="cls-13" d="M36.8,153.81c0,2.79,2.24,3.75,5,2.14s5-5.19,5-8-2.25-3.75-5-2.14S36.8,151,36.8,153.81Z"/><path class="cls-3" d="M39,152.55c0,1.6,1.28,2.15,2.86,1.23a6,6,0,0,0,2.87-4.57c0-1.59-1.28-2.14-2.87-1.22A6,6,0,0,0,39,152.55Z"/><path class="cls-13" d="M40.06,151.91c0,1,.78,1.31,1.75.75a3.7,3.7,0,0,0,1.76-2.8c0-1-.79-1.32-1.76-.75A3.69,3.69,0,0,0,40.06,151.91Z"/><polygon class="cls-13" points="33.32 126.48 35.71 125.09 54.78 136.21 52.4 137.6 33.32 126.48"/><polygon class="cls-13" points="9.77 140.21 12.15 138.82 31.23 149.94 28.84 151.33 9.77 140.21"/><polygon class="cls-15" points="12.15 138.82 33.32 126.48 52.4 137.6 31.23 149.94 12.15 138.82"/><polygon class="cls-13" points="2.61 191.66 11.65 196.93 11.65 185.66 2.61 180.4 2.61 191.66"/><polygon class="cls-14" points="11.65 196.93 21.69 191.08 21.69 179.82 11.65 185.66 11.65 196.93"/><path class="cls-13" d="M12.54,190.76c0,2.3,1.85,3.09,4.13,1.76s4.13-4.27,4.13-6.58-1.85-3.09-4.13-1.76S12.54,188.45,12.54,190.76Z"/><path class="cls-3" d="M13.54,190.18c0,1.74,1.4,2.34,3.13,1.33a6.56,6.56,0,0,0,3.13-5c0-1.74-1.4-2.34-3.13-1.33A6.56,6.56,0,0,0,13.54,190.18Z"/><path class="cls-13" d="M15.22,189.19c0,.81.65,1.09,1.45.62a3,3,0,0,0,1.45-2.3c0-.81-.65-1.09-1.45-.62A3,3,0,0,0,15.22,189.19Z"/><polygon class="cls-15" points="2.61 180.4 12.65 174.55 21.69 179.82 11.65 185.66 2.61 180.4"/><polygon class="cls-17" points="182.78 127.15 291.21 190.34 189.53 249.6 81.09 186.41 182.78 127.15"/><path class="cls-18" d="M282.51,189.45l-98.2-57.23a3.33,3.33,0,0,0-3.07,0L89.79,185.51a1,1,0,0,0,0,1.79L188,244.53a3.39,3.39,0,0,0,3.07,0l91.45-53.29A1,1,0,0,0,282.51,189.45Zm-93,52.4L94.39,186.41l88.39-51.51,95.13,55.44Z"/><path class="cls-18" d="M188.3,160.28l8.37-4.52.06,0c.82-.48.86-1.25.06-1.76a3.37,3.37,0,0,0-3.06-.07l-7.51,4-7.39-4.31a3.39,3.39,0,0,0-3.07,0,1,1,0,0,0,0,1.79l8.2,4.78-.8,11.85L162.29,159.9a3.39,3.39,0,0,0-3.07,0l-8.28,4.83a1,1,0,0,0,0,1.79,3.37,3.37,0,0,0,3.06,0l6.76-3.94L183.6,175.9l.12,0,.18.09.18.06.19.06.21,0,.19,0,.24,0h.14l.34,0h.14a3,3,0,0,0,.32-.06h.1a2.91,2.91,0,0,0,.39-.12l.09-.05a1.33,1.33,0,0,0,.24-.11L203,166.36l6.65,3.87a3.33,3.33,0,0,0,3.07,0,.94.94,0,0,0,0-1.78l-8.18-4.77a3.33,3.33,0,0,0-3.07,0l-14,8.15Z"/><path class="cls-19" d="M221.37,210.23a3.33,3.33,0,0,0-3.07,0l-6.75,3.93L188.7,200.85l-.11-.06-.19-.08-.18-.07-.19,0-.2-.05-.2,0-.24,0h-.62l-.32.05-.1,0a2.4,2.4,0,0,0-.38.12l-.1,0-.24.12-16.37,9.54-6.65-3.88a3.37,3.37,0,0,0-3.06,0,1,1,0,0,0,0,1.79l8.18,4.77a3.39,3.39,0,0,0,3.07,0l14-8.15L184,216.47,175.63,221l-.06,0c-.82.48-.85,1.25-.06,1.75a3.36,3.36,0,0,0,3.07.07l7.5-4,7.39,4.31a3.39,3.39,0,0,0,3.07,0,1,1,0,0,0,0-1.79l-8.19-4.78.79-11.86L210,216.85a3.39,3.39,0,0,0,3.07,0l8.29-4.83A1,1,0,0,0,221.37,210.23Z"/><path class="cls-19" d="M217.28,174.66l6.65,3.87-16.37,9.54a1,1,0,0,0-.2.14l-.08.06a1,1,0,0,0-.2.22l0,.06a.76.76,0,0,0-.09.18.28.28,0,0,0,0,.09.88.88,0,0,0,0,.17s0,.08,0,.1a.83.83,0,0,0,0,.15s0,.07.06.11a.75.75,0,0,0,.07.12l.1.11.1.1a.91.91,0,0,0,.16.11.71.71,0,0,0,.09.07l22.85,13.31-6.76,3.94a1,1,0,0,0,0,1.79,3.39,3.39,0,0,0,3.07,0l8.29-4.83a1,1,0,0,0,0-1.79l-20.87-12.17,20.35-.46,8.19,4.78a3.39,3.39,0,0,0,3.07,0,1,1,0,0,0,0-1.79l-7.39-4.31L245.3,184c.81-.51.76-1.31-.12-1.79a3.39,3.39,0,0,0-3,0l-.06,0-7.74,4.88-19.82.45,14-8.15a.94.94,0,0,0,0-1.78l-8.18-4.77a3.33,3.33,0,0,0-3.07,0A1,1,0,0,0,217.28,174.66Z"/><path class="cls-18" d="M155,202.09l-6.65-3.87,16.37-9.54.19-.14.08-.06a1.33,1.33,0,0,0,.2-.22s0,0,0-.06a.66.66,0,0,0,.09-.19s0,0,0-.08a1.11,1.11,0,0,0,0-.17.31.31,0,0,0,0-.11l0-.14-.06-.11a.75.75,0,0,0-.07-.12l-.1-.11-.11-.11-.15-.11-.09-.06L141.9,173.57l6.75-3.93a1,1,0,0,0,0-1.79,3.39,3.39,0,0,0-3.07,0l-8.28,4.83a1,1,0,0,0,0,1.79l20.87,12.16-20.35.46-8.2-4.77a3.33,3.33,0,0,0-3.07,0,1,1,0,0,0,0,1.79l7.39,4.3L127,192.79c-.82.51-.76,1.31.12,1.78a3.34,3.34,0,0,0,3,0l.06,0,7.75-4.88,19.82-.45-14,8.15a1,1,0,0,0,0,1.79l8.19,4.77a3.39,3.39,0,0,0,3.07,0A1,1,0,0,0,155,202.09Z"/><path class="cls-18" d="M203.5,172.06l-16.66,9.7-24.38-14.21a3.39,3.39,0,0,0-3.07,0L155.13,170l-.2.13a1.36,1.36,0,0,0-.24.13l-4.27,2.48a1,1,0,0,0,0,1.79l24.39,14.21-16.66,9.7a1,1,0,0,0,0,1.79l7.59,4.42a3.33,3.33,0,0,0,3.07,0l16.65-9.7,24.38,14.2a3.33,3.33,0,0,0,3.07,0l4.26-2.48a1.1,1.1,0,0,0,.21-.14,1.34,1.34,0,0,0,.24-.12l4.26-2.48a1,1,0,0,0,0-1.79L197.5,188l16.65-9.71a.94.94,0,0,0,0-1.78l-7.58-4.42A3.33,3.33,0,0,0,203.5,172.06Zm-10.6,15a.94.94,0,0,0,0,1.78l24.38,14.21-2.73,1.59a1.91,1.91,0,0,0-.21.14l-.24.12-2.72,1.59L187,192.3a3.39,3.39,0,0,0-3.07,0L167.27,202l-4.51-2.63,16.65-9.71a1,1,0,0,0,0-1.79L155,173.67l2.73-1.59.2-.14a.9.9,0,0,0,.24-.12l2.73-1.59,24.38,14.21a3.33,3.33,0,0,0,3.07,0l16.65-9.7,4.52,2.63Z"/><path class="cls-18" d="M181.05,139l-10.83,6.3a1,1,0,0,0,0,1.79,3.33,3.33,0,0,0,3.07,0l9.29-5.41,12.11,7.05a3.33,3.33,0,0,0,3.07,0,1,1,0,0,0,0-1.79L184.12,139A3.33,3.33,0,0,0,181.05,139Z"/><path class="cls-19" d="M202.08,229.61a3.37,3.37,0,0,0-3.06,0l-9.3,5.42L177.62,228a3.39,3.39,0,0,0-3.07,0,1,1,0,0,0,0,1.79l13.64,8a3.33,3.33,0,0,0,3.07,0l10.82-6.31A1,1,0,0,0,202.08,229.61Z"/><path class="cls-19" d="M254.1,183.4l12.11,7-9.29,5.42a1,1,0,0,0,0,1.79,3.39,3.39,0,0,0,3.07,0l10.82-6.31a1,1,0,0,0,0-1.79l-13.64-7.95a3.39,3.39,0,0,0-3.07,0A1,1,0,0,0,254.1,183.4Z"/><path class="cls-18" d="M118.2,193.35l-12.1-7.06,9.29-5.41a1,1,0,0,0,0-1.79,3.33,3.33,0,0,0-3.07,0l-10.83,6.31a1,1,0,0,0,0,1.79l13.64,7.95a3.39,3.39,0,0,0,3.07,0A1,1,0,0,0,118.2,193.35Z"/><g class="cls-2"><polygon class="cls-20" points="310.78 212.3 320.14 206.81 320.25 167.47 310.89 172.97 310.78 212.3"/><path class="cls-21" d="M266.37,147c-2.55-1.49-4.87-1.62-6.54-.64l9.36-5.5c1.67-1,4-.84,6.55.65l44.51,25.94-9.36,5.5Z"/><path class="cls-20" d="M266.37,147c-5.08-3-9.21-.58-9.22,5.31L257.07,181l53.71,31.3.11-39.33Z"/></g><polygon class="cls-22" points="178.85 236.69 178.89 220.88 220.04 244.86 307.92 193.29 307.87 209.11 220 260.68 178.85 236.69"/><g class="cls-2"><polygon class="cls-22" points="220.04 244.86 307.92 193.29 307.95 180.45 220.08 232.02 220.04 244.86"/><path class="cls-23" d="M183.84,210.9c-2.24-1.31-4.26-1.43-5.73-.57L266,158.76c1.46-.86,3.48-.73,5.72.57L308,180.45,220.08,232Z"/><path class="cls-24" d="M183.84,210.9c-4.45-2.6-8.06-.51-8.07,4.64v1.09a4.65,4.65,0,0,0,2.07,3.63L220,244.86l0-12.84Z"/><path class="cls-24" d="M183.84,210.9c-4.45-2.6-8.06-.51-8.07,4.64v1.09a4.65,4.65,0,0,0,2.07,3.63L220,244.86l0-12.84Z"/></g><path d="M222.27,190.58c-4,.91-4.69,4.09-3.2,6.9a2.13,2.13,0,0,0,.16.25l4.61,6.59.09.14c1.69,2.93,3.93,4.37,6.82,4a2.51,2.51,0,0,0,.81-.23c2.46-1.18,2.77-3,2-5.07l0-3.94c0-.1-1.14.28-1.16.18L231,191.87a2.31,2.31,0,0,0-2.46-1.88l-5.94.54A1.67,1.67,0,0,0,222.27,190.58Z"/><path class="cls-3" d="M252,184.91V164.27l-16.41-4a8,8,0,0,0-9.87,8c.2,9,1.56,18.73,1,26.79,0,4.91,8.46,6.37,11.73,2.83,1.23-7.21,3-11.13,1.25-18.69Z"/><path d="M215,208.31a13,13,0,0,1,0,10c-3,.94-5.53,1-7.19-.29-5.59-.68-8.77-.12-11.61-1.12-3-1.07-5-2.13-6.43-5.32a3.35,3.35,0,0,1,3-4.19c4.67.09,8.88,0,11.23-1l4.42-7.09,6.88,6.19Z"/><path class="cls-3" d="M203,206.7c0,4.91,9.51,7.14,12.78,3.6,1.23-7.21,2-11.9.2-19.46l20.63,9.69,17.53-16L211.88,172a8,8,0,0,0-9.87,8C202.21,188.94,203.57,198.65,203,206.7Z"/><path class="cls-25" d="M233.62,145.4a14.76,14.76,0,0,1-7.75-2.28l-2.28.12-1.63.57a1,1,0,0,1-1.23-.57,1,1,0,0,1,.41-1.23l.79-.46-1.86.21a.9.9,0,0,1-.86-.4.92.92,0,0,1,.53-1.39l1-.27-3.28-.83c-1.42-.3-1.21-1.92-.07-1.91l3.88-3.39L234,138.73l3.82,2.32-2.09,5.16Z"/><path class="cls-13" d="M211.27,130.55l1.81-1.06a3.33,3.33,0,0,1,3,0l13.5,7.92a1.09,1.09,0,0,1,.62.89v1.63a1.09,1.09,0,0,1-.64.9l-1.81,1a3.3,3.3,0,0,1-3,0L211.26,134a1.14,1.14,0,0,1-.63-.89C210.63,132.07,210.25,131.12,211.27,130.55Z"/><path class="cls-25" d="M226.12,137.65c-.46-.84-.78-1.86-1.78-2.15a18.08,18.08,0,0,0-2.11-.59c-2-.36-2.54-.4-2.64-1.54-.12-1.33,3-.5,3.77-.35,3.34.61,4.12.18,5.74,1.64a28.06,28.06,0,0,0,4.4,3.49c0,.21.05,2-.19,2.1C232.5,140.63,227.51,140.22,226.12,137.65Z"/><path class="cls-16" d="M273.34,147.51l-19.19.49-19.89-9.33c-3.61-.91-6.62,4.78-3.81,6.63l17.77,12.1c4.88,2.84,10.85,4.82,17.28,6.45Z"/><path class="cls-11" d="M236.5,179.73c-1.42,5.46-5.11,14.32-.91,19.63,6.25,5.4,32.89-3,34.67-14.54.72-9.2,18.84-31.68,4.73-37-5.19-2-17.13,4.93-23.5,8.24C244.9,160.13,240.15,165.62,236.5,179.73Z"/><path class="cls-25" d="M253.29,152.15l-4-2.87c-1.82-1.19-2.24-4.91-2.29-7.63,0,0-.12-4.23-.12-5.69a4.66,4.66,0,0,1,1.26-3.49l13.09.47L263.8,142l-2.33,8.59Z"/><path class="cls-25" d="M253.25,155.16l-1-5.92,10.36-2.75,2.36,3C262.31,153.07,258.66,155,253.25,155.16Z"/><path d="M250.18,139.89c-.42,1.07,0,2.64.1,4.08l2.54,2.19-.12,2.13s2.9,3.38,8.19,1.46c3.68-1.33,3.14-3,4.34-9.49.76-4.07.71-5.9-3.09-9.11-3.45-2.93-12-4.49-15.23-.66-1,1.15-1.74,4.18,0,6C248,137.64,250.77,138.42,250.18,139.89Z"/><path class="cls-25" d="M253.44,144.11a3.69,3.69,0,0,1,.34,1.95,2.85,2.85,0,0,1-.5,1.72,1.21,1.21,0,0,1-1.6.32c-.68-.53-1.15-3.09-1-3.95C251,142.72,252.85,143,253.44,144.11Z"/><path class="cls-25" d="M220.35,183.79,218.21,182a1.42,1.42,0,0,0-.73-.32l-1.2-.16a1.44,1.44,0,0,1-.57-.2l-4.4-2.77-.23-.11-2.09-.83-.81.14-1.12.15c-1.06.23-1.39-.92-.38-1.3l1.74-.46a1.48,1.48,0,0,1,.51,0l2,.22.05-.55-2.47-1.21a1.45,1.45,0,0,0-.45-.13l-1.3-.15c-.67.09-1.19-.91-.25-1.39l1.14-.29a1.41,1.41,0,0,0,.52-.26l.23-.18a3.74,3.74,0,0,1,2.4-.8,1.43,1.43,0,0,0,.93-.33l.09-.08a2.72,2.72,0,0,1,2.95-.35l1.35.67.17.1,2.14,1.46a1.37,1.37,0,0,0,.8.24,3.62,3.62,0,0,1,2.46.79,4.56,4.56,0,0,1,.81,2.45,1.38,1.38,0,0,0,.51.94l1.94,1.59a1.43,1.43,0,0,1,.1,2.12l-2.84,2.81A1.39,1.39,0,0,1,220.35,183.79Z"/><path class="cls-16" d="M216,185.93c-1.14-3.18,1.74-7.71,5.93-7.41l10.92,3.7L242,165.67a5.56,5.56,0,0,1,6.95,1.34c6,6.61,3.47,12.07,3.47,12.07-4.9,5.67-6.36,9.39-9.75,13.81-1.74,2.27-2.91,8.41-7.2,7.89C229.35,200.05,222.59,192,216,185.93Z"/><path class="cls-26" d="M187,210c2,.26,2.66.66,3.66-1.25,2.84-8.55,1.75-19.11,6.08-23.92,2.64-2.93,8.63,1.27,13.23,3.45L209.41,201l-7.27-4.89c.23,8.91-7.49,9.17-5.55,17.22l-1.85,4.36-7.85-1.8-4.58-2L181,211.59C181.37,210.08,184,209.75,187,210Z"/><path class="cls-27" d="M187,210a2.46,2.46,0,0,0-2.08,1.12c-1.07,1.24,1.63,2.36,3.71,2.94,4.69,1.3,6.46-1.94,7.77-1.61,1.79,2.14,1.22,6.69-2,6.68-1,0-3.33-1.14-4.45-1.72a15.74,15.74,0,0,0-3-.83c-3.66-.91-6.91-2.37-7.08-6.2a1.94,1.94,0,0,1,2.63-1.62Z"/><path class="cls-26" d="M205,195.77s-15.42-11-20.51-5.35c-4.33,4.81-3.24,15.37-6.08,23.91-1,1.92-1.61,1.51-3.66,1.26-3-.24-5.62.09-6,1.6l1.35,2.36,4.58,2,7.85,1.79,1.85-4.36c-1.94-8.05,5.78-8.31,5.55-17.22l25.53,17.18,12.84-2.43,3.33-16.79Z"/><path class="cls-27" d="M174.77,215.59a2.43,2.43,0,0,0-2.08,1.11c-1.07,1.25,1.63,2.37,3.71,2.94,4.69,1.3,6.46-1.94,7.77-1.61,1.79,2.14,1.22,6.69-2,6.68-1,0-3.33-1.14-4.45-1.72a15.74,15.74,0,0,0-3-.83c-3.66-.91-6.91-2.36-7.08-6.2a1.94,1.94,0,0,1,2.63-1.61C171.74,214.74,174.77,215.59,174.77,215.59Z"/><path class="cls-3" d="M189.39,198.56a12,12,0,0,0,.53,2.93c8.73,9.3,17.68,16.82,27.53,17.92,8.77,0,15.58-3.57,17.7-13a16.76,16.76,0,0,0-2.53-12.81l-12.1-2.23-7.82-3.23-9.8-4.05C192.17,186.19,189.23,194.54,189.39,198.56Z"/><path class="cls-28" d="M220.52,191.4,211,206c-9.53,3.2-12.88-5.07-21.64-7.46-.17-4,2.62-12.18,13.51-14.42Z"/><path class="cls-25" d="M215.46,187.94l-3.11-.58-3.75-3.07-2.95-1.15-1.9-.23a.76.76,0,0,0-.42.06l-.39.17h-.49a.82.82,0,0,0-.74.5l-.53.26a.42.42,0,0,0,.17.73H202l1.16.35,1.84,1,1,1.94s-.22.42-.31.44a7.75,7.75,0,0,1-2,.1l-.66-.12c-.61.16-.94.63-.37.91l.88.38,3.5,1h3.62l3.68,1Z"/><path class="cls-12" d="M208.75,190.53c.68,1.65,5,2.62,5,2.62.58,3.6-1.16,6.59-2.68,10.18a5.91,5.91,0,0,0,3.46,5.38c.13.07.28.12.44.19s.45.15.68.22l.73.17a10.46,10.46,0,0,0,2.43.22,5.82,5.82,0,0,0,.59,0,4.16,4.16,0,0,0,.61,0c5.16-.38,9.7-3.14,15.49-7.12-1.26-13.33,5.93-18.51,6.9-25,.89-6.1-2.21-9.85-5.75-10.31a40.87,40.87,0,0,0-12.9,5.58c-.25.16-7.19,5.78-7.6,6.07C213.33,180.72,206.32,184.73,208.75,190.53Z"/><path class="cls-25" d="M201.65,197l-3.6-.38-2.33-.3-3.36-2.09-1.55-.6-.57.1-.79.1c-.74.17-1-.64-.26-.9l1.39-.39,1.62.17,0-.39-1.89-.91-1.08-.12c-.47.07-.83-.64-.18-1l1-.26.6-.47a1.64,1.64,0,0,1,1.06-.36h.72l.84-.71a.93.93,0,0,1,1-.12l1.58.78,1.85,1.25a3.28,3.28,0,0,1,1.74.79c.52.46.88,2.61.88,2.61l2.55,1.31Z"/><path class="cls-29" d="M208.75,190.53c.68,1.65,5,2.62,5,2.62.58,3.6-1.16,6.59-2.68,10.18a5.91,5.91,0,0,0,3.46,5.38c.13.07.28.12.44.19s.45.15.68.22l.73.17a12.77,12.77,0,0,0,2.43.22,5.82,5.82,0,0,0,.59,0l.66-.05c-6.15-5.17,4-14.49,2.52-25.22l-6.43-5.54C213.33,180.72,206.32,184.73,208.75,190.53Z"/><path class="cls-12" d="M198.05,196.57c3.07,3.74,12.26,6.41,14.85,4.8a46.42,46.42,0,0,0,10.31-17.47c.5-5.15-4.82-10.36-7.73-3.53,0,0-7.5,13.39-7.69,13.46-1.75.54-7.44-.05-7.44-.05C198.87,194,197.37,195.55,198.05,196.57Z"/><path class="cls-25" d="M224.57,165.34v7c5.54,4.71,12.49,1.05,10.89-2.81l-1.37-7.49Z"/><path class="cls-25" d="M220.17,152.47a8.07,8.07,0,0,0-.9,3.21,18.1,18.1,0,0,0,2.12,10.43A7.36,7.36,0,0,0,223,168.2a3.41,3.41,0,0,0,2.39.88,5.22,5.22,0,0,0,3.15-2,6.77,6.77,0,0,0,1.82-2.83,6.2,6.2,0,0,0-.48-3.61,27.78,27.78,0,0,0-4.06-7.35c-.66-.85-1.61-2.44-2.74-2.67S220.69,151.57,220.17,152.47Z"/><path class="cls-30" d="M219.26,151.91s-5.81,11.34,11.52,16.44c0,0,.69.49,3.51-.94,2.4-4.16,8.59-14.06-2.07-18.81C225.43,145.58,218.11,148.21,219.26,151.91Z"/><path class="cls-30" d="M230.86,168.79c-.17,1.38-.66,2.71-.87,4.08a10.57,10.57,0,0,0,6.12,11c-1.52-4.41,3.11-9.22,1.56-13.62a13.3,13.3,0,0,0-3.74-5.51c-.61-.47-1.38.2-2.11-.06-1.38-.49-1.63-.25-1.43.86A9.5,9.5,0,0,1,230.86,168.79Z"/><path class="cls-21" d="M174.48,210.56c1.35-.79,3.22-.68,5.28.52l18.48,10.78,3.66-9.17a106.72,106.72,0,0,1-12-11.2Z"/><g class="cls-2"><polygon class="cls-20" points="218.93 232.69 307.95 180.45 318.06 153.93 229.03 206.17 218.93 232.69"/><path class="cls-21" d="M227.43,201.19l-4.84-4.93a11.26,11.26,0,0,0-2.24-1.78c-1.72-1-3.37-1.15-4.58-.45l89-52.23c1.2-.71,2.85-.55,4.57.45a10.84,10.84,0,0,1,2.24,1.77l4.84,4.93c1.4,1.42,2.12,3.64,1.61,5l-89,52.24C229.54,204.83,228.83,202.61,227.43,201.19Z"/><path class="cls-20" d="M203.28,223.48l15.65,9.21.65-1.69,4.13-10.86,5.32-14c.51-1.34-.2-3.56-1.6-5l-4.85-4.93a10.17,10.17,0,0,0-2.24-1.78c-2.59-1.51-5.06-1.09-6,1.35l-6.42,16.08-4,10Z"/></g><g class="cls-2"><polygon class="cls-20" points="212.95 269.31 222.32 263.82 222.43 224.49 213.06 229.98 212.95 269.31"/><path class="cls-21" d="M168.55,204c-2.56-1.49-4.87-1.62-6.55-.64l9.37-5.49c1.67-1,4-.85,6.54.64l44.52,25.94-9.37,5.5Z"/><path class="cls-20" d="M168.55,204c-5.08-3-9.21-.58-9.23,5.31L159.24,238,213,269.31l.11-39.33Z"/></g><g class="cls-31"><polygon class="cls-32" points="60.19 165.04 60.19 66.83 167.53 4.28 167.53 102.48 60.19 165.04"/><g class="cls-33"><polygon class="cls-34" points="95.11 144.69 57.42 144.69 57.42 65.97 91.06 46.36 170.61 46.36 170.61 100.69 95.11 144.69"/><polygon class="cls-12" points="100.6 141.49 57.42 141.49 57.42 65.97 96.55 43.16 170.61 43.16 170.61 100.69 100.6 141.49"/><polygon class="cls-35" points="105.93 138.38 57.42 138.38 57.42 65.97 101.88 40.06 170.61 40.06 170.61 100.69 105.93 138.38"/><polygon class="cls-36" points="170.61 71.84 91.23 71.84 91.25 46.25 170.61 0 170.61 71.84"/><polygon class="cls-34" points="170.61 71.84 91.23 71.84 91.29 52.66 170.61 52.66 170.61 71.84"/><g class="cls-2"><polygon class="cls-35" points="135.83 52.22 170.61 52.36 170.61 58.87 169.52 60.14 129.17 59.98 135.83 52.22"/><polygon class="cls-36" points="162.86 67.9 122.52 67.75 122.53 72.56 162.88 72.72 162.86 67.9"/><polygon class="cls-35" points="169.52 60.14 129.17 59.98 122.52 67.75 162.86 67.9 169.52 60.14"/><polygon class="cls-36" points="156.22 80.48 115.87 80.32 115.88 85.15 156.23 85.3 156.22 80.48"/><polygon class="cls-35" points="162.88 72.72 122.53 72.56 115.87 80.32 156.22 80.48 162.88 72.72"/><polygon class="cls-36" points="149.57 93.06 109.23 92.91 109.24 97.73 149.59 97.88 149.57 93.06"/><polygon class="cls-35" points="156.23 85.3 115.88 85.15 109.23 92.91 149.57 93.06 156.23 85.3"/><polygon class="cls-35" points="149.59 97.88 109.24 97.73 102.58 105.49 142.93 105.64 149.59 97.88"/><polygon class="cls-37" points="149.59 97.88 149.57 93.06 156.23 85.3 156.22 80.48 162.88 72.72 162.86 67.9 169.52 60.14 170.61 58.87 170.61 78.21 169.58 79.42 162.92 87.18 156.26 94.94 149.6 102.7 142.94 110.46 142.93 105.64 149.59 97.88"/><polygon class="cls-36" points="142.93 105.64 102.58 105.49 102.59 110.31 142.94 110.46 142.93 105.64"/></g><path class="cls-38" d="M135.77,54.34a1,1,0,0,0,.48-.76V37.05c0-.27-.21-.36-.48-.2a1,1,0,0,0-.47.76V54.14C135.3,54.4,135.51,54.5,135.77,54.34Z"/><path class="cls-38" d="M124.21,67.69a1,1,0,0,0,.47-.76V50.4c0-.27-.21-.36-.47-.21a1,1,0,0,0-.48.76V67.49C123.73,67.75,123.94,67.84,124.21,67.69Z"/><path class="cls-38" d="M117.56,80.36a1,1,0,0,0,.48-.75V63.07c0-.26-.22-.35-.48-.2a1,1,0,0,0-.48.76V80.16C117.08,80.43,117.3,80.52,117.56,80.36Z"/><path class="cls-38" d="M110.92,92.85a1,1,0,0,0,.47-.76V75.56c0-.27-.21-.36-.47-.2a1,1,0,0,0-.48.76V92.65C110.44,92.92,110.65,93,110.92,92.85Z"/><path class="cls-38" d="M130,61.07a1,1,0,0,0,.48-.76V43.78c0-.27-.22-.36-.48-.21a1,1,0,0,0-.48.76V60.87C129.51,61.13,129.73,61.22,130,61.07Z"/><path class="cls-39" d="M102.46,89.46l21.26-38.8,13.56-15.81a.58.58,0,0,1,.36-.24h1c.09,0,.15.09.15.25a2.14,2.14,0,0,1-.5,1.17L125,51.49,104,89.82a2.24,2.24,0,0,1-.27.41c-.17.19-.33.29-.43.23l.07,0h-1a.08.08,0,0,1-.07,0C102.16,90.36,102.23,89.91,102.46,89.46Z"/><path class="cls-38" d="M124.73,50.66l-21.26,38.8c-.23.46-.3.9-.15,1s.26,0,.43-.23a2.24,2.24,0,0,0,.27-.41l21-38.33L138.3,36a2.14,2.14,0,0,0,.5-1.17c0-.33-.23-.33-.51,0Z"/><rect class="cls-39" x="118.23" y="43.95" width="8" height="2.97"/><rect class="cls-39" x="109.75" y="43.95" width="8" height="2.97"/><rect class="cls-39" x="113.99" y="40.48" width="8" height="2.97"/><rect class="cls-39" x="113.99" y="47.41" width="8" height="2.97"/><polygon class="cls-39" points="130.41 23.43 136.43 23.43 136.43 26.4 128.42 26.4 128.42 24.59 130.41 23.43"/><polygon class="cls-39" points="124.47 26.89 132.19 26.89 132.19 29.86 124.18 29.86 124.18 27.06 124.47 26.89"/><polygon class="cls-39" points="102.8 39.52 105.1 39.52 105.1 42.48 97.71 42.48 102.8 39.52"/><polygon class="cls-39" points="96.86 42.98 100.86 42.98 100.86 45.95 92.86 45.95 92.86 45.31 96.86 42.98"/><polygon class="cls-40" points="168.75 1.09 168.75 52.4 144.37 52.4 144.37 15.3 168.75 1.09"/><polygon class="cls-41" points="170.47 0.08 170.47 52.4 169.23 53.85 168.75 52.4 168.75 1.09 170.47 0.08"/><polygon class="cls-41" points="144.37 15.3 144.37 52.4 143.12 53.85 142.64 52.4 141.95 16.7 144.37 15.3"/><polygon class="cls-42" points="143.12 16.02 143.12 53.85 141.4 53.85 141.4 17.03 143.12 16.02"/><polygon class="cls-42" points="169.23 0.81 169.23 53.85 167.5 53.85 167.5 1.81 169.23 0.81"/><g class="cls-2"><path class="cls-42" d="M144.87,27h.32a1.24,1.24,0,0,0,.77-.48h-.32A1.24,1.24,0,0,1,144.87,27Z"/><path class="cls-42" d="M144.87,27h.32a1.24,1.24,0,0,0,.77-.48h-.32A1.24,1.24,0,0,1,144.87,27Z"/><path class="cls-40" d="M145.94,20.32h-.32s.3,0,.3,0Z"/><path class="cls-42" d="M145.6,20.35h.32a6.91,6.91,0,0,0-1.61,3.75v3c0,.51.18.77.47.77h-.32c-.29,0-.47-.26-.47-.77v-3A6.89,6.89,0,0,1,145.6,20.35Z"/><path class="cls-12" d="M145.92,20.35a6.91,6.91,0,0,0-1.61,3.75v3c0,1,.73,1,1.62,0a5.43,5.43,0,0,0,0-.56c-.63.66-1.12.64-1.12-.09V23.54a5.14,5.14,0,0,1,1.11-2.68v-.54Z"/></g><path class="cls-43" d="M73.07,119.88c2,0,2,1.88,0,4.2s-5.22,4.21-7.21,4.21-2-1.88,0-4.2S71.08,119.88,73.07,119.88Z"/><path class="cls-38" d="M142.94,104.87a1,1,0,0,0,.48-.76V87.58c0-.27-.21-.36-.48-.21a1,1,0,0,0-.47.76v16.54C142.47,104.93,142.68,105,142.94,104.87Z"/><path class="cls-38" d="M162.88,67.22a1,1,0,0,0,.48-.76V49.93c0-.27-.22-.36-.48-.21a1,1,0,0,0-.48.76V67C162.4,67.28,162.61,67.37,162.88,67.22Z"/><path class="cls-38" d="M156.23,79.89a1,1,0,0,0,.48-.76V62.6c0-.26-.21-.36-.48-.2a1,1,0,0,0-.47.76V79.69C155.76,80,156,80.05,156.23,79.89Z"/><path class="cls-38" d="M149.59,92.38a1,1,0,0,0,.48-.76V75.09c0-.27-.22-.36-.48-.2a1,1,0,0,0-.48.76V92.18C149.11,92.44,149.32,92.54,149.59,92.38Z"/><path class="cls-38" d="M168.66,60.6a1,1,0,0,0,.48-.76V43.31c0-.27-.21-.36-.48-.21a1,1,0,0,0-.47.76V60.4C168.19,60.66,168.4,60.75,168.66,60.6Z"/><path class="cls-39" d="M141.14,89l21.26-38.8,8.21-9.58V43L163.71,51l-21,38.33a2.25,2.25,0,0,1-.28.41c-.16.19-.33.29-.43.23h-.94L141,90C140.83,89.88,140.9,89.44,141.14,89Z"/><path class="cls-38" d="M142.15,89l21.26-38.8,7.2-8.4V43L163.71,51l-21,38.33a2.25,2.25,0,0,1-.28.41c-.16.19-.33.29-.43.23S141.91,89.45,142.15,89Z"/><path class="cls-44" d="M72.17,120.5c1.49,0,1.49,1.41,0,3.15s-3.92,3.15-5.41,3.15-1.49-1.41,0-3.15S70.68,120.5,72.17,120.5Z"/><polygon class="cls-44" points="73.29 94.6 65.64 99.06 65.64 125.88 73.29 121.42 73.29 94.6"/><path class="cls-36" d="M72.17,93.68c1.49,0,1.49,1.41,0,3.15S68.25,100,66.76,100s-1.49-1.41,0-3.15S70.68,93.68,72.17,93.68Z"/><path class="cls-44" d="M71,94.63c.86,0,.86.8,0,1.79a5.07,5.07,0,0,1-3.08,1.8c-.85,0-.85-.81,0-1.8A5.05,5.05,0,0,1,71,94.63Z"/><polygon class="cls-44" points="71.64 78.88 67.29 81.42 67.29 97.69 71.64 95.15 71.64 78.88"/><path class="cls-36" d="M71,78.35c.86,0,.86.81,0,1.8a5.05,5.05,0,0,1-3.08,1.79c-.85,0-.85-.8,0-1.79A5.07,5.07,0,0,1,71,78.35Z"/><path class="cls-45" d="M70.4,58.4v21a2,2,0,0,1-.94,1.49c-.51.3-.93.12-.93-.4v-21Z"/><path class="cls-45" d="M70.37,58.42v21a2,2,0,0,1-.93,1.49c-.51.3-.93.12-.93-.4v-21Z"/></g><path class="cls-46" d="M122.22,114.45l-11.4-1.14c-1.45-.15-3.34.89-4.86,2.67l-2,2.32c-1,1.1-1.33,2.51-.89,3.26s-.08,2.58-1.28,3.69l-7,6.48c-2.62,2.53-3.54,6.33-1.84,7.59s4.79.31,7.41-2.35l8.6-8.68a7.64,7.64,0,0,1,4.23-2.39l1.26-.14c2-.23,4.38-1.85,6.17-4.22l1.67-2.21C124,117.12,123.94,114.62,122.22,114.45Z"/><path class="cls-47" d="M112.64,112.49a11,11,0,0,1,.35,2.44c0,1.4-1.7,2.15-2.42,2.54-2.12,1.12-4.14,4-6.21,4.68-.91.32-1-.17-.77-1.15.49-1.88,3.15-3.09,4.5-4.46a8.27,8.27,0,0,0,2.14-4.11s1.84-.69,2-.66C112.6,111.84,112.52,112.12,112.64,112.49Z"/><path class="cls-48" d="M108.81,103.78a9.82,9.82,0,0,1,.62,2c.11.49.19,1,.27,1.54a39.4,39.4,0,0,1,.29,5.44l2.65-.86s0-.38.52-3.72c.11-.79.25-1.76.43-2.93,0-.21,0-.41.07-.61.32-3.06-.64-4.33-.93-5.88a4.42,4.42,0,0,1,0-2c.36-1.55.88-4.51,1.29-7,.38-2.25.66-4.08.66-4.08s-5.14-1.84-6.29,3.62S107,98.14,108.81,103.78Z"/><path class="cls-48" d="M112.64,111.88a7.33,7.33,0,0,1,.34,2.05,3,3,0,0,1-.79,1.91,5.44,5.44,0,0,1-1.62,1c-2.12,1.12-4.14,4-6.21,4.68-.91.32-.94-.4-.56-1.22.89-1.92,2.94-3,4.29-4.38a8.27,8.27,0,0,0,2.14-4.11s1.84-.7,2-.67C112.6,111.22,112.52,111.51,112.64,111.88Z"/><path class="cls-49" d="M107.93,116.94a.56.56,0,0,0-.51-.3,2.17,2.17,0,0,0-1,.51A6,6,0,0,0,105,118.6a.52.52,0,0,1,.51-.19.55.55,0,0,1,.26.33,7.57,7.57,0,0,1,.34,2.1c.42-.25.78-.86,1.19-1.19s1.17-.55,1.12-1.09A3.37,3.37,0,0,0,107.93,116.94Z"/><path class="cls-50" d="M109.43,105.76c.11.49.19,1,.27,1.54a9.75,9.75,0,0,0,1.3-.08,2.43,2.43,0,0,1,1.39.31c.19.1.46.6.77.63.11-.79.25-1.76.43-2.93,0-.21,0-.41.07-.61a1.56,1.56,0,0,0-1.07,0A13.9,13.9,0,0,0,109.43,105.76Z"/><path d="M105.51,120.14a6.61,6.61,0,0,0-.29,3.25c.36,1.15,1.64.3,2.74-.17,2.12-.9,3.17.1,6-1.55,1.67-1,2.79-2,3.14-3.27,0-.52-.24-.86-.83-1,0,0-3.83.5-3.93.49a10.06,10.06,0,0,1-1.86-.39c0-.11-.66-2.72-.66-2.72l-4.13,2.41Z"/><path class="cls-51" d="M101.76,100.21v.13l.58,1.67,2.1,6a29.75,29.75,0,0,0,.51,12.42c.1.43.19.85.3,1.26s.49.45,1,.17a20.4,20.4,0,0,0,4.54-4.25c-.72-3.27.13-10.12-.39-14l-1.77-9.92-1.16-4C103,91,101.74,95.62,101.76,100.21Z"/><path class="cls-52" d="M101.76,100.21v.13l.58,1.67,2.1,6a29.75,29.75,0,0,0,.51,12.42c.1.43.19.85.3,1.26s.49.45,1,.17c0-5-1.8-9.14-.36-14.69L104.27,100l1.46-5.35Z"/><path class="cls-48" d="M97.53,84.67A46.73,46.73,0,0,0,102,82a20.61,20.61,0,0,0,2.84-2.81c3.22-3.29,3.62-5.39,6.34-6.43a1.89,1.89,0,0,1,.45-.09c.7-.08,1.59-.09,1.58-1.94,0-2.43.13-2.9-1.33-2.34-2.56,1-3.27,1.8-4.81,4.25A41.86,41.86,0,0,1,97,83.39C97.16,83.82,97.35,84.24,97.53,84.67Z"/><path class="cls-50" d="M103.72,79.36c3.48-2.56,4.77-5.54,7.49-6.58a1.89,1.89,0,0,1,.45-.09c0-.33-.18-.56-.5-.57-1.19,0-3.21,2.46-4.23,3.6S104.79,78.15,103.72,79.36Z"/><path class="cls-47" d="M115.35,76.74l-5.08-2.58-3.92-4.85c-1.82-1.26-4.64,1.87-6.22,3.19l3.9,6.64,2.23,1.58c1.87.77,6.08,1.28,9.34,1.31.55.35,3.13-3.49,2.15-4.12Z"/><path d="M93,133.92a5.11,5.11,0,0,0-.3,2.68,7.32,7.32,0,0,1,.56,1c.24.69.2,2.09,1.42,2.2,1.45.31,4.25-1.27,5.13-3a3.6,3.6,0,0,0-1.13-2.35l-1.42-1.84.09-2.55-4.09,1.47Z"/><path class="cls-51" d="M92.6,134.11a.92.92,0,0,0,.66.54c1,.27,2.83-.62,4.37-2.24a83.68,83.68,0,0,1,1.77-15c1-4.68,1.83-9.09,2.48-13.11a23.54,23.54,0,0,0,.4-3.09c1.27-2.73,5.16-8.31,5.24-11.5l-.45-1.88-1,2.47-2,1.4L96.8,96.77l-2.89,2v19.76c-.87,2-1.14,5.58-1.23,9.59C92.62,130.06,92.62,132.1,92.6,134.11Z"/><path class="cls-52" d="M92.6,134.11a.92.92,0,0,0,.66.54c0-6,.24-11.78,1.88-16.59l.79-7.27.65-2.66v-2.08l-.65-2a8.74,8.74,0,0,1,2.41-5.73L93.91,100v18.55c-.87,2-1.14,5.58-1.23,9.59C92.62,130.06,92.62,132.1,92.6,134.11Z"/><path class="cls-47" d="M92.78,100.82c.11-1.12.45-3.67.41-4.89l-.52-4.51L91.22,85a48.29,48.29,0,0,1,7.26-11.62L104.26,70c1.33.48,2.06,2.06,2.45,4.27,0,0-.07,9.8.35,11.92,0,.21.09.43.15.64a3.21,3.21,0,0,1-.31,2C104.19,95,97.71,99.75,92.78,100.82Z"/><path class="cls-12" d="M99.07,72.41l-2.33,3.23c-1.17,4.27,1.75,4,3.65,4.94l1.11-3.79,2.77-1.07-1-4.52Z"/><path class="cls-48" d="M102.34,75.6a4.17,4.17,0,0,1-.84,1.19c-2.36,2.08-3.88.46-4-1.27-.12-1.54-.23-2.75-.23-2.75l5.42-1.83s0,.41.07,1A9.9,9.9,0,0,1,102.34,75.6Z"/><path class="cls-53" d="M103.16,75.15c-1.77,1.48-3.17-.94-3.17-.94l3.62-2.81C104.32,73.4,103.9,74.54,103.16,75.15Z"/><path class="cls-48" d="M97.87,72.77a10.58,10.58,0,0,0,2.21,1.5,2.89,2.89,0,0,0,2.36-.31,3.51,3.51,0,0,0,1.18-1.11c1-1.22.9-4.78.9-4.78a6.6,6.6,0,0,0-.25-2.23c-.26-1-1.4-2.65-4.88-.15a6.57,6.57,0,0,0-2.86,4.39A6.74,6.74,0,0,0,97,73Z"/><path d="M97.14,74.41c.91,1,2.52,0,2.68-1.59,0-.32.84-.69,1.17-1l-.26-.86c-.12-.72.43-1,.9-1.39,1.69-1.37,2.6-2.62,2.82-3.61.56-2.49-2.26-2.43-4.39-1.12A8.69,8.69,0,0,0,96,70.57C95.68,72.36,97.14,74.41,97.14,74.41Z"/><path class="cls-48" d="M99.65,71.63a1,1,0,0,0-.69.51.74.74,0,0,0-.09.46.89.89,0,0,0,.14.33,2.61,2.61,0,0,0,.37.44.38.38,0,0,0,.43.15c.21-.07.45-.07.56-.31a1.87,1.87,0,0,0,0-.9A.76.76,0,0,0,99.65,71.63Z"/><path class="cls-48" d="M105.11,69.51c0,.4-.64.83-1,.89-.05,0-.1.07-.14.06s0,0,0-.08a4.94,4.94,0,0,1,0-1c0-.18,0-1,.23-1.12S105.13,69.07,105.11,69.51Z"/><path class="cls-47" d="M115.87,123.8c.23-.82,2.4-3.57,3.44-6.62l3.64-2.12c.46,1.09-.31,2-.93,3.17-1.22,2.32-.74,3.67-5.1,6.35-.3.19-.64.38-.86.3S115.78,124.13,115.87,123.8Z"/><path class="cls-48" d="M112,93.41a18.75,18.75,0,0,0,.76,5.32,23,23,0,0,0,2.16,5.1,21,21,0,0,0,1.33,2c.23.3.46.59.69.86,2.55,3,2.84,8.09,2.84,8.09l2.33-1.36s-.17-.7.34-6.66a12.79,12.79,0,0,0,0-1.49c-.18-3.69-2.55-3.69-3.14-5.21a2.36,2.36,0,0,1-.13-.89c.11-2.75-.31-10.34-.31-10.34a9.7,9.7,0,0,0-4.79.92A4,4,0,0,0,112,93.41Z"/><path class="cls-48" d="M122.33,113.44c1.49,1.54.47,2.57-.31,4.06-1.22,2.32-.74,3.67-5.1,6.35-.3.19-.64.38-.86.3s-.23-.4-.14-.73c.33-1.19,4.67-7.2,3.85-10.87a8.25,8.25,0,0,0,1.19-.76c.5-.36.6-.59.63-.11A2.51,2.51,0,0,0,122.33,113.44Z"/><path class="cls-47" d="M118.76,118.87a2.13,2.13,0,0,0-.83.58,3.61,3.61,0,0,0-.33.53,10.59,10.59,0,0,0-.88,1.88,3.22,3.22,0,0,1,1.87-.58,1.89,1.89,0,0,1,1.36.62,10.11,10.11,0,0,0,1-1.25c.23-.37.24-.82.43-1.14.47-.81-.82-.86-1.41-.89A2.82,2.82,0,0,0,118.76,118.87Z"/><path class="cls-50" d="M114.88,103.83a21,21,0,0,0,1.33,2,8.22,8.22,0,0,0,2.34-.73,4.58,4.58,0,0,1,3.27-.25,2,2,0,0,1,.62.42c-.18-3.69-2.55-3.69-3.14-5.21l-.09,0c-1.13.28-2.34,1.46-3.44,2.56A4.39,4.39,0,0,0,114.88,103.83Z"/><path class="cls-48" d="M123.24,60.77a4.71,4.71,0,0,0-2.13-.06q-.56,1.24-1,2.49c-.06.18-.13.37-.08.48s.22.12.36.12a1.63,1.63,0,0,1,1.42.63l-1.58.84a.77.77,0,0,0-.35.32c-.08.18,0,.29.18.25a2.46,2.46,0,0,0,.46-.23c.66-.38,1.18-.08,1.84-.34a7.52,7.52,0,0,0,1-.56c.32-.19.67-.32.88-.19s.2.22.38.13A.86.86,0,0,0,125,64a3.25,3.25,0,0,0-.48-2A2.35,2.35,0,0,0,123.24,60.77Z"/><path class="cls-48" d="M109.69,87.94a12.83,12.83,0,0,0,7.6-5.55c.7,1.45,3.62,2.13,1.65,9.06l-6.83,2.68s-3.86-.23-4-5.19c0-.51,0-1,0-1.48A3.11,3.11,0,0,0,109.69,87.94Z"/><path class="cls-12" d="M108.66,106.21c0,.88,3.7-.15,7.11-2.19,2.46-1.46,4.76-3.45,5.42-5.63-1.09-1.21-.61-2.29-.74-4.37-.23-3.75,1.07-10.14-3.11-11.61l0,0c-1-.35-.67.42-1.67,1.22a23.05,23.05,0,0,1-5.17,3.11c-.44.19-2,.49-2.32.94a5.12,5.12,0,0,0-.29,1.43C106.61,95.46,106.82,101.48,108.66,106.21Z"/><path class="cls-12" d="M108.81,80.28a36.81,36.81,0,0,0-.73,7.18c2,1.22,5.73-.87,8.07-3.55a11.37,11.37,0,0,0,1.14-1.52,1.37,1.37,0,0,1-.14-.71,45.38,45.38,0,0,1,2.08-7.21c.88-2.54,1.7-4.75,1.7-4.75l.26-1.74-4.69-1.32-5,1.78s-.53.45-.9,2.73-.61,1.62-2.52,5.52S108.81,80.28,108.81,80.28Z"/><path class="cls-48" d="M118.17,67.83a3.46,3.46,0,0,1-1,1.75c-1.52,1.7-2.92,4-4.37,4-1.72-.48,1.51-6.39,1.89-7.8a31.57,31.57,0,0,1,4.19-3.25C119.39,62.67,118.33,67.23,118.17,67.83Z"/><path class="cls-50" d="M113.27,70.52a6.7,6.7,0,0,1,1.08-3.4c1-1.26,2.87-1.72,3.42-1.3.36.29,0,.73-.34,1.32C116.23,69.08,113.39,72.29,113.27,70.52Z"/><path class="cls-48" d="M113,69.25c-.47-.49,0-4.19,1.43-7,1.94-3.87,5.11-5.88,6.28-5.33,1.4.67.85,7.11-2.63,8.71a1.76,1.76,0,0,0-1,.79C115.21,69.1,113.46,69.72,113,69.25Z"/><path d="M115.67,63.64c.25,1.3,1.62,3.69-.32,6.29a13.83,13.83,0,0,0,5.73-5.87c2.29-4.44,1.08-8.1-1.14-7.69S115.08,60.64,115.67,63.64Z"/><path d="M116.56,60.2A6.47,6.47,0,0,0,114.12,63c-.16-1.77,2.19-4.74,3.37-5.55,1.65-1.13,2.44.3.86,1.14a3,3,0,0,0-1,.71A7.37,7.37,0,0,1,116.56,60.2Z"/><path class="cls-54" d="M112.93,80.9c-1.29.13-2-1-1.66-2.64a11.41,11.41,0,0,1-2.51,2.07c-.15.53-.81,4.11-.58,4.7.44-3.09,1.55-4,2.11-4a1.47,1.47,0,0,1,.78.49,2.22,2.22,0,0,0,2.78.15,6.38,6.38,0,0,0,1.82-1.87,7.8,7.8,0,0,0,.91-1.63c-.26.07-.54.56-.75.81a6.44,6.44,0,0,1-.91.9A4.08,4.08,0,0,1,112.93,80.9Z"/><path class="cls-48" d="M117.93,76.08c.29.12.86-.66,1.11-1,2.77-4.17,5.46-3.4,8-4.3a4.55,4.55,0,0,0,1.49-.83,3.26,3.26,0,0,0,.92-1.14c1.21-2.57-2.7-5.41-4.82-6.11a1.61,1.61,0,0,0-.72,1.32,1.58,1.58,0,0,0,.51.91,7.17,7.17,0,0,1,1,2.27s0,.1.05.15a18.77,18.77,0,0,0-3.61.48l-1.13.23c-1.4.28-1.81,1.18-2.73,5.49C117.64,75.34,117.7,76,117.93,76.08Z"/><path class="cls-50" d="M121.9,67.78c.48,0,1.41.32,1.65.33a6.61,6.61,0,0,0,2.19-.15,1.3,1.3,0,0,0-.28-.81s0,.1.05.15A18.77,18.77,0,0,0,121.9,67.78Z"/><path class="cls-50" d="M117.93,76.08c.29.12.86-.66,1.11-1,2.77-4.17,5.46-3.4,8-4.3a4.55,4.55,0,0,0,1.49-.83,3.26,3.26,0,0,0,.92-1.14A5.65,5.65,0,0,1,127.67,70c-2.75.88-5.36.75-7.48,1.9C119.33,72.37,118.18,75.1,117.93,76.08Z"/><path class="cls-54" d="M119.14,95.61a12.87,12.87,0,0,0-1-7.5c-.53-1.06-1.51-2.1-1.68-3.51-.64-1.73.24-4.2.73-6a9.58,9.58,0,0,1,.9-2.69,9.26,9.26,0,0,1,.71-.94c.07-.08.27-.27.48-.47a45.38,45.38,0,0,0-2.08,7.21,1.37,1.37,0,0,0,.14.71.61.61,0,0,0-.07.14l.12-.12c4.18,1.47,2.88,7.86,3.11,11.61.13,2.08-.35,3.16.74,4.37-.66,2.18-3,4.17-5.42,5.63A20.51,20.51,0,0,0,119.14,95.61Z"/><path class="cls-54" d="M110,102.34a18.2,18.2,0,0,1-2-4.12c.35,1.58.7,3.15,1,4.72a4.62,4.62,0,0,0,1,2.41c.37.33,2.74.65,2.6-.73-.06-.51-1-.71-1.25-.92A6.26,6.26,0,0,1,110,102.34Z"/><path class="cls-28" d="M98.34,98.3c-.39-3.78-2-4.27-2.41-12.25l-3.55,4.07v12.3Z"/><path class="cls-48" d="M91.8,107l-.27-1.68,2.41-1.93.46,2a2.07,2.07,0,0,1,1.71,1.06l.23,1.37c0,.41-.41.68-.65.33l-.23-.39-.26-.44-.58.73,0,1.19,1,.14c.42,0,.26.47-.15.76l-1.19.33-.6-.12a.84.84,0,0,1-.93.26c-.3.36-.53.46-.71.31l-.22-.53c-.34.2-.55.11-.63-.28A8.74,8.74,0,0,1,91.8,107Z"/><path class="cls-27" d="M91,85.38A72.12,72.12,0,0,0,89.57,98.3l2.11,8.78c.51.74,1.92,0,2.93-1.84l-.7-9.18,2-10C96.53,82.24,92.34,82.27,91,85.38Z"/><path class="cls-47" d="M91,85.38A72.12,72.12,0,0,0,89.57,98.3l2.11,8.78c.51.74,1.92,0,2.93-1.84l-.7-9.18,2-10C96.53,82.24,92.34,82.27,91,85.38Z"/><path class="cls-26" d="M118.47,79.43a4.21,4.21,0,0,1-.21,2.83s-1.53,2.47-1.53,2.52-.52.72-.52.72c-.48.57-.55,0-.25-.45l.42-.72c-.35.4-.46-.06-.17-.53l.36-.71c-.32.37-.43-.07,0-.68l.59-1.13.27-1.2-.74.16c-.38.13-.23-.38.26-.77l.87-.73Z"/></g><path class="cls-55" d="M148.25,179.21c-1.4,1.17-3.36,1-6.83-3.48s-7.15-11.7-5.76-12.87,7.33,4.12,10.8,8.64S149.64,178,148.25,179.21Z"/><path class="cls-56" d="M150.13,183.05l-7.94-10.71a.14.14,0,0,1,0-.19.12.12,0,0,1,.17,0l8.81,10a.7.7,0,0,1-.06,1,.68.68,0,0,1-1-.06Z"/><path class="cls-55" d="M147.74,198.4c-1.66,1.39-4,1.23-8.13-4.14s-8.51-13.93-6.85-15.32,8.72,4.91,12.85,10.28S149.39,197,147.74,198.4Z"/><path class="cls-56" d="M149.87,202.73l-8-11.53a.13.13,0,0,1,0-.18.12.12,0,0,1,.17,0L151,201.89a.7.7,0,0,1-.1,1,.69.69,0,0,1-1-.1Z"/><path class="cls-55" d="M147.17,217.76c-2,1.64-4.71,1.45-9.58-4.88s-10-16.41-8.07-18,10.27,5.78,15.14,12.11S149.12,216.12,147.17,217.76Z"/><path class="cls-57" d="M162.59,233.07H138.74c-1.72,6.28-.85,13.17,1.31,19.7a6.73,6.73,0,0,0,3.64,3.42,16.44,16.44,0,0,0,13.95,0,6.73,6.73,0,0,0,3.64-3.42C163.44,246.24,164.32,239.35,162.59,233.07Z"/><path class="cls-58" d="M159.12,227.61c4.67,2.72,4.67,7.14,0,9.86s-12.24,2.72-16.91,0-4.67-7.14,0-9.86S154.45,224.89,159.12,227.61Z"/><path class="cls-59" d="M159.45,235.11a7.38,7.38,0,0,1-1.79,1.4,15.72,15.72,0,0,1-14,0,7.38,7.38,0,0,1-1.79-1.4c-1.93-2.11-1.33-4.77,1.79-6.53a15.72,15.72,0,0,1,14,0C160.79,230.34,161.39,233,159.45,235.11Z"/><path d="M159.45,235.11a7.38,7.38,0,0,1-1.79,1.4,15.72,15.72,0,0,1-14,0,7.38,7.38,0,0,1-1.79-1.4,7.12,7.12,0,0,1,1.79-1.39,15.72,15.72,0,0,1,14,0A7.12,7.12,0,0,1,159.45,235.11Z"/><path class="cls-60" d="M154.43,219.51c1.95,1.64,4.71,1.45,9.58-4.89s10-16.41,8.07-18.05-10.27,5.78-15.15,12.12S152.48,217.87,154.43,219.51Z"/><path class="cls-60" d="M147.47,203.86c-1.66,3.33-4,5.89-8.13,5.34s-8.5-4-6.84-7.34,8.71-5.25,12.85-4.7S149.13,200.54,147.47,203.86Z"/><path class="cls-60" d="M153.86,200.14c1.66,1.39,4,1.23,8.13-4.14s8.5-13.93,6.84-15.32S160.12,185.59,156,191,152.2,198.75,153.86,200.14Z"/><path class="cls-60" d="M148,184.08c-1.39,2.8-3.35,4.95-6.83,4.48s-7.14-3.37-5.75-6.16,7.32-4.42,10.8-4S149.38,181.29,148,184.08Z"/><path class="cls-60" d="M150.93,170.41c-2.4,1.4-4.35,1.51-4.36-2.79s2-11.38,4.35-12.78,4.36,3.4,4.37,7.7S153.34,169,150.93,170.41Z"/><path class="cls-60" d="M153.35,181c1.39,1.17,3.36,1,6.83-3.48s7.15-11.7,5.75-12.87-7.32,4.12-10.8,8.64S152,179.79,153.35,181Z"/><path class="cls-56" d="M149.29,234.73l1.12-71.39a.26.26,0,0,1,.26-.26.27.27,0,0,1,.26.26L152,234.73a1.38,1.38,0,1,1-2.75,0Z"/><path class="cls-56" d="M150,189l-8-5.42a.13.13,0,0,1,0-.18.12.12,0,0,1,.16-.05l8.6,4.45a.71.71,0,0,1,.3.94.68.68,0,0,1-.93.3Z"/><path class="cls-56" d="M150.4,182.75l8.8-9.83a.15.15,0,0,1,.19,0,.14.14,0,0,1,0,.18l-7.94,10.55a.69.69,0,1,1-1.1-.84Z"/><path class="cls-56" d="M150.4,202.72l10.71-12.12a.13.13,0,0,1,.18,0,.14.14,0,0,1,0,.18l-9.85,12.84a.69.69,0,0,1-1,.13.71.71,0,0,1-.12-1Z"/><path class="cls-56" d="M149.88,206.36l-11.67-3.72a.13.13,0,0,1-.08-.17.13.13,0,0,1,.15-.09L150.23,205a.69.69,0,0,1,.53.82.68.68,0,0,1-.82.53Z"/><path class="cls-56" d="M150.43,221.77l14.1-14.33a.14.14,0,0,1,.19,0,.13.13,0,0,1,0,.18l-13.29,15.1a.67.67,0,0,1-1,.06.7.7,0,0,1-.06-1Z"/><path class="cls-55" d="M154.12,202.12c1.66,3.32,4,5.89,8.13,5.33s8.51-4,6.85-7.33-8.72-5.26-12.85-4.7S152.47,198.8,154.12,202.12Z"/><path class="cls-55" d="M153.61,182.34c1.4,2.79,3.36,4.94,6.83,4.48s7.15-3.37,5.76-6.17-7.33-4.41-10.8-4S152.22,179.55,153.61,182.34Z"/><path class="cls-56" d="M149.45,222.5l-9.16-11.84a.13.13,0,0,1,0-.19.14.14,0,0,1,.18,0l10,11.11a.69.69,0,1,1-1,.94Z"/><path class="cls-55" d="M154.69,222.15c2,3.92,4.71,6.94,9.58,6.28s10-4.73,8.07-8.64-10.27-6.19-15.14-5.54S152.74,218.23,154.69,222.15Z"/><path class="cls-56" d="M150.32,227.08,163,220.27a.13.13,0,0,1,.18,0,.13.13,0,0,1,0,.17L151,228.28a.68.68,0,0,1-.95-.21.7.7,0,0,1,.21-1Z"/><path class="cls-60" d="M146.9,223.89c-2,3.92-4.71,6.94-9.58,6.29s-10-4.73-8.07-8.65,10.27-6.19,15.15-5.54S148.86,220,146.9,223.89Z"/><path class="cls-56" d="M149.8,226.25l-11.28-3.05a.13.13,0,0,1-.09-.16.13.13,0,0,1,.15-.09l11.51,1.94a.7.7,0,0,1,.57.8.68.68,0,0,1-.79.57Z"/><path class="cls-56" d="M150.69,204l10.21-3.27a.12.12,0,0,1,.16.08.13.13,0,0,1-.07.16l-9.82,4.33a.7.7,0,0,1-.55-1.28Z"/><path class="cls-56" d="M150.65,185l8.86-3.39a.13.13,0,0,1,.17.08.12.12,0,0,1-.06.16l-8.41,4.41a.68.68,0,0,1-.93-.29.71.71,0,0,1,.29-.94Z"/></g></g></g></svg>